# Tiled2Unity generated file. Do not modify by hand.
# Wavefront file for 'floor20_mesh_0011.obj'

# Vertices (Count = 72)
v -128 -64 0
v -160 -64 0
v -160 -32 0
v -128 -32 0
v -160 -64 0
v -192 -64 0
v -192 -32 0
v -160 -32 0
v -320 -64 0
v -352 -64 0
v -352 -32 0
v -320 -32 0
v -352 -64 0
v -384 -64 0
v -384 -32 0
v -352 -32 0
v -128 -96 0
v -160 -96 0
v -160 -64 0
v -128 -64 0
v -160 -96 0
v -192 -96 0
v -192 -64 0
v -160 -64 0
v -320 -96 0
v -352 -96 0
v -352 -64 0
v -320 -64 0
v -352 -96 0
v -384 -96 0
v -384 -64 0
v -352 -64 0
v -160 -128 0
v -192 -128 0
v -192 -96 0
v -160 -96 0
v -320 -128 0
v -352 -128 0
v -352 -96 0
v -320 -96 0
v -160 -160 0
v -192 -160 0
v -192 -128 0
v -160 -128 0
v -320 -160 0
v -352 -160 0
v -352 -128 0
v -320 -128 0
v -160 -192 0
v -192 -192 0
v -192 -160 0
v -160 -160 0
v -320 -192 0
v -352 -192 0
v -352 -160 0
v -320 -160 0
v -320 -288 0
v -352 -288 0
v -352 -256 0
v -320 -256 0
v -416 -288 0
v -448 -288 0
v -448 -256 0
v -416 -256 0
v -320 -320 0
v -352 -320 0
v -352 -288 0
v -320 -288 0
v -416 -320 0
v -448 -320 0
v -448 -288 0
v -416 -288 0

# Texture cooridinates (Count = 30)
vt 0.6875 0.3125
vt 0.75 0.3125
vt 0.75 0.375
vt 0.6875 0.375
vt 0.8125 0.3125
vt 0.8125 0.375
vt 0.6875 0.25
vt 0.75 0.25
vt 0.8125 0.25
vt 0.9375 0.125
vt 1 0.125
vt 1 0.1875
vt 0.9375 0.1875
vt 0.875 0.125
vt 0.875 0.1875
vt 0.9375 0.0625
vt 1 0.0625
vt 0.875 0.0625
vt 0.9375 0
vt 1 0
vt 0.875 0
vt 0.5625 0.625
vt 0.625 0.625
vt 0.625 0.6875
vt 0.5625 0.6875
vt 0.6875 0.625
vt 0.6875 0.6875
vt 0.5625 0.5625
vt 0.625 0.5625
vt 0.6875 0.5625

# Normal
vn 0 0 -1

# Mesh description
g floor20_mesh_0011

# Faces
f 1/1/1 2/2/1 3/3/1 4/4/1
f 5/2/1 6/5/1 7/6/1 8/3/1
f 9/1/1 10/2/1 11/3/1 12/4/1
f 13/2/1 14/5/1 15/6/1 16/3/1
f 17/7/1 18/8/1 19/2/1 20/1/1
f 21/8/1 22/9/1 23/5/1 24/2/1
f 25/7/1 26/8/1 27/2/1 28/1/1
f 29/8/1 30/9/1 31/5/1 32/2/1
f 33/10/1 34/11/1 35/12/1 36/13/1
f 37/14/1 38/10/1 39/13/1 40/15/1
f 41/16/1 42/17/1 43/11/1 44/10/1
f 45/18/1 46/16/1 47/10/1 48/14/1
f 49/19/1 50/20/1 51/17/1 52/16/1
f 53/21/1 54/19/1 55/16/1 56/18/1
f 57/22/1 58/23/1 59/24/1 60/25/1
f 61/23/1 62/26/1 63/27/1 64/24/1
f 65/28/1 66/29/1 67/23/1 68/22/1
f 69/29/1 70/30/1 71/26/1 72/23/1

