# Tiled2Unity generated file. Do not modify by hand.
# Wavefront file for 'floor20_mesh_0010.obj'

# Vertices (Count = 20)
v -320 -288 0
v -352 -288 0
v -352 -256 0
v -320 -256 0
v -352 -288 0
v -384 -288 0
v -384 -256 0
v -352 -256 0
v -384 -288 0
v -416 -288 0
v -416 -256 0
v -384 -256 0
v -416 -288 0
v -448 -288 0
v -448 -256 0
v -416 -256 0
v -448 -288 0
v -480 -288 0
v -480 -256 0
v -448 -256 0

# Texture cooridinates (Count = 10)
vt 0.75 0.1875
vt 0.8125 0.1875
vt 0.8125 0.25
vt 0.75 0.25
vt 0.875 0.1875
vt 0.875 0.25
vt 0.9375 0.1875
vt 0.9375 0.25
vt 1 0.1875
vt 1 0.25

# Normal
vn 0 0 -1

# Mesh description
g floor20_mesh_0010

# Faces
f 1/1/1 2/2/1 3/3/1 4/4/1
f 5/2/1 6/5/1 7/6/1 8/3/1
f 9/5/1 10/7/1 11/8/1 12/6/1
f 13/7/1 14/9/1 15/10/1 16/8/1
f 17/1/1 18/2/1 19/3/1 20/4/1

