# Tiled2Unity generated file. Do not modify by hand.
# Wavefront file for 'floor20_mesh_0005.obj'

# Vertices (Count = 28)
v 0 -416 0
v -32 -416 0
v -32 -384 0
v 0 -384 0
v -32 -416 0
v -64 -416 0
v -64 -384 0
v -32 -384 0
v -64 -416 0
v -96 -416 0
v -96 -384 0
v -64 -384 0
v -96 -416 0
v -128 -416 0
v -128 -384 0
v -96 -384 0
v -128 -416 0
v -160 -416 0
v -160 -384 0
v -128 -384 0
v -160 -416 0
v -192 -416 0
v -192 -384 0
v -160 -384 0
v -192 -416 0
v -224 -416 0
v -224 -384 0
v -192 -384 0

# Texture cooridinates (Count = 8)
vt 0.8125 0.0625
vt 0.875 0.0625
vt 0.875 0.125
vt 0.8125 0.125
vt 0.9375 0.0625
vt 0.9375 0.125
vt 1 0.0625
vt 1 0.125

# Normal
vn 0 0 -1

# Mesh description
g floor20_mesh_0005

# Faces
f 1/1/1 2/2/1 3/3/1 4/4/1
f 5/2/1 6/5/1 7/6/1 8/3/1
f 9/2/1 10/5/1 11/6/1 12/3/1
f 13/2/1 14/5/1 15/6/1 16/3/1
f 17/2/1 18/5/1 19/6/1 20/3/1
f 21/2/1 22/5/1 23/6/1 24/3/1
f 25/5/1 26/7/1 27/8/1 28/6/1

