# Tiled2Unity generated file. Do not modify by hand.
# Wavefront file for 'floor20_mesh_0008.obj'

# Vertices (Count = 24)
v 0 -320 0
v -32 -320 0
v -32 -288 0
v 0 -288 0
v 0 -352 0
v -32 -352 0
v -32 -320 0
v 0 -320 0
v 0 -384 0
v -32 -384 0
v -32 -352 0
v 0 -352 0
v -32 -384 0
v -64 -384 0
v -64 -352 0
v -32 -352 0
v -128 -384 0
v -160 -384 0
v -160 -352 0
v -128 -352 0
v -160 -384 0
v -192 -384 0
v -192 -352 0
v -160 -352 0

# Texture cooridinates (Count = 18)
vt 0.6875 0.5
vt 0.75 0.5
vt 0.75 0.5625
vt 0.6875 0.5625
vt 0.6875 0.4375
vt 0.75 0.4375
vt 0.6875 0.75
vt 0.75 0.75
vt 0.75 0.8125
vt 0.6875 0.8125
vt 0.8125 0.75
vt 0.8125 0.8125
vt 0.875 0.75
vt 0.9375 0.75
vt 0.9375 0.8125
vt 0.875 0.8125
vt 1 0.75
vt 1 0.8125

# Normal
vn 0 0 -1

# Mesh description
g floor20_mesh_0008

# Faces
f 1/1/1 2/2/1 3/3/1 4/4/1
f 5/5/1 6/6/1 7/2/1 8/1/1
f 9/7/1 10/8/1 11/9/1 12/10/1
f 13/8/1 14/11/1 15/12/1 16/9/1
f 17/13/1 18/14/1 19/15/1 20/16/1
f 21/14/1 22/17/1 23/18/1 24/15/1

