# Tiled2Unity generated file. Do not modify by hand.
# Wavefront file for 'floor7_mesh_0005.obj'

# Vertices (Count = 412)
v 0 -64 0
v -32 -64 0
v -32 -32 0
v 0 -32 0
v -32 -64 0
v -64 -64 0
v -64 -32 0
v -32 -32 0
v -64 -64 0
v -96 -64 0
v -96 -32 0
v -64 -32 0
v -96 -64 0
v -128 -64 0
v -128 -32 0
v -96 -32 0
v -128 -64 0
v -160 -64 0
v -160 -32 0
v -128 -32 0
v -160 -64 0
v -192 -64 0
v -192 -32 0
v -160 -32 0
v -192 -64 0
v -224 -64 0
v -224 -32 0
v -192 -32 0
v -224 -64 0
v -256 -64 0
v -256 -32 0
v -224 -32 0
v -256 -64 0
v -288 -64 0
v -288 -32 0
v -256 -32 0
v -288 -64 0
v -320 -64 0
v -320 -32 0
v -288 -32 0
v 0 -96 0
v -32 -96 0
v -32 -64 0
v 0 -64 0
v -288 -96 0
v -320 -96 0
v -320 -64 0
v -288 -64 0
v 0 -128 0
v -32 -128 0
v -32 -96 0
v 0 -96 0
v -288 -128 0
v -320 -128 0
v -320 -96 0
v -288 -96 0
v 0 -160 0
v -32 -160 0
v -32 -128 0
v 0 -128 0
v -224 -160 0
v -256 -160 0
v -256 -128 0
v -224 -128 0
v -288 -160 0
v -320 -160 0
v -320 -128 0
v -288 -128 0
v 0 -192 0
v -32 -192 0
v -32 -160 0
v 0 -160 0
v -32 -192 0
v -64 -192 0
v -64 -160 0
v -32 -160 0
v -64 -192 0
v -96 -192 0
v -96 -160 0
v -64 -160 0
v -96 -192 0
v -128 -192 0
v -128 -160 0
v -96 -160 0
v -128 -192 0
v -160 -192 0
v -160 -160 0
v -128 -160 0
v -160 -192 0
v -192 -192 0
v -192 -160 0
v -160 -160 0
v -192 -192 0
v -224 -192 0
v -224 -160 0
v -192 -160 0
v -224 -192 0
v -256 -192 0
v -256 -160 0
v -224 -160 0
v -288 -192 0
v -320 -192 0
v -320 -160 0
v -288 -160 0
v -224 -224 0
v -256 -224 0
v -256 -192 0
v -224 -192 0
v -288 -224 0
v -320 -224 0
v -320 -192 0
v -288 -192 0
v -320 -224 0
v -352 -224 0
v -352 -192 0
v -320 -192 0
v -352 -224 0
v -384 -224 0
v -384 -192 0
v -352 -192 0
v -384 -224 0
v -416 -224 0
v -416 -192 0
v -384 -192 0
v -416 -224 0
v -448 -224 0
v -448 -192 0
v -416 -192 0
v -448 -224 0
v -480 -224 0
v -480 -192 0
v -448 -192 0
v 0 -256 0
v -32 -256 0
v -32 -224 0
v 0 -224 0
v -32 -256 0
v -64 -256 0
v -64 -224 0
v -32 -224 0
v -64 -256 0
v -96 -256 0
v -96 -224 0
v -64 -224 0
v -96 -256 0
v -128 -256 0
v -128 -224 0
v -96 -224 0
v -128 -256 0
v -160 -256 0
v -160 -224 0
v -128 -224 0
v -160 -256 0
v -192 -256 0
v -192 -224 0
v -160 -224 0
v -192 -256 0
v -224 -256 0
v -224 -224 0
v -192 -224 0
v -224 -256 0
v -256 -256 0
v -256 -224 0
v -224 -224 0
v -448 -256 0
v -480 -256 0
v -480 -224 0
v -448 -224 0
v 0 -288 0
v -32 -288 0
v -32 -256 0
v 0 -256 0
v -192 -288 0
v -224 -288 0
v -224 -256 0
v -192 -256 0
v -224 -288 0
v -256 -288 0
v -256 -256 0
v -224 -256 0
v -288 -288 0
v -320 -288 0
v -320 -256 0
v -288 -256 0
v -320 -288 0
v -352 -288 0
v -352 -256 0
v -320 -256 0
v -352 -288 0
v -384 -288 0
v -384 -256 0
v -352 -256 0
v -448 -288 0
v -480 -288 0
v -480 -256 0
v -448 -256 0
v 0 -320 0
v -32 -320 0
v -32 -288 0
v 0 -288 0
v -192 -320 0
v -224 -320 0
v -224 -288 0
v -192 -288 0
v -224 -320 0
v -256 -320 0
v -256 -288 0
v -224 -288 0
v -288 -320 0
v -320 -320 0
v -320 -288 0
v -288 -288 0
v -352 -320 0
v -384 -320 0
v -384 -288 0
v -352 -288 0
v -448 -320 0
v -480 -320 0
v -480 -288 0
v -448 -288 0
v 0 -352 0
v -32 -352 0
v -32 -320 0
v 0 -320 0
v -32 -352 0
v -64 -352 0
v -64 -320 0
v -32 -320 0
v -64 -352 0
v -96 -352 0
v -96 -320 0
v -64 -320 0
v -96 -352 0
v -128 -352 0
v -128 -320 0
v -96 -320 0
v -128 -352 0
v -160 -352 0
v -160 -320 0
v -128 -320 0
v -160 -352 0
v -192 -352 0
v -192 -320 0
v -160 -320 0
v -192 -352 0
v -224 -352 0
v -224 -320 0
v -192 -320 0
v -224 -352 0
v -256 -352 0
v -256 -320 0
v -224 -320 0
v -288 -352 0
v -320 -352 0
v -320 -320 0
v -288 -320 0
v -352 -352 0
v -384 -352 0
v -384 -320 0
v -352 -320 0
v -448 -352 0
v -480 -352 0
v -480 -320 0
v -448 -320 0
v -160 -384 0
v -192 -384 0
v -192 -352 0
v -160 -352 0
v -288 -384 0
v -320 -384 0
v -320 -352 0
v -288 -352 0
v -352 -384 0
v -384 -384 0
v -384 -352 0
v -352 -352 0
v -448 -384 0
v -480 -384 0
v -480 -352 0
v -448 -352 0
v 0 -416 0
v -32 -416 0
v -32 -384 0
v 0 -384 0
v -32 -416 0
v -64 -416 0
v -64 -384 0
v -32 -384 0
v -64 -416 0
v -96 -416 0
v -96 -384 0
v -64 -384 0
v -96 -416 0
v -128 -416 0
v -128 -384 0
v -96 -384 0
v -128 -416 0
v -160 -416 0
v -160 -384 0
v -128 -384 0
v -160 -416 0
v -192 -416 0
v -192 -384 0
v -160 -384 0
v -192 -416 0
v -224 -416 0
v -224 -384 0
v -192 -384 0
v -224 -416 0
v -256 -416 0
v -256 -384 0
v -224 -384 0
v -288 -416 0
v -320 -416 0
v -320 -384 0
v -288 -384 0
v -352 -416 0
v -384 -416 0
v -384 -384 0
v -352 -384 0
v -448 -416 0
v -480 -416 0
v -480 -384 0
v -448 -384 0
v 0 -448 0
v -32 -448 0
v -32 -416 0
v 0 -416 0
v -192 -448 0
v -224 -448 0
v -224 -416 0
v -192 -416 0
v -224 -448 0
v -256 -448 0
v -256 -416 0
v -224 -416 0
v -288 -448 0
v -320 -448 0
v -320 -416 0
v -288 -416 0
v -352 -448 0
v -384 -448 0
v -384 -416 0
v -352 -416 0
v -384 -448 0
v -416 -448 0
v -416 -416 0
v -384 -416 0
v -416 -448 0
v -448 -448 0
v -448 -416 0
v -416 -416 0
v -448 -448 0
v -480 -448 0
v -480 -416 0
v -448 -416 0
v 0 -480 0
v -32 -480 0
v -32 -448 0
v 0 -448 0
v -192 -480 0
v -224 -480 0
v -224 -448 0
v -192 -448 0
v -224 -480 0
v -256 -480 0
v -256 -448 0
v -224 -448 0
v -288 -480 0
v -320 -480 0
v -320 -448 0
v -288 -448 0
v 0 -512 0
v -32 -512 0
v -32 -480 0
v 0 -480 0
v -32 -512 0
v -64 -512 0
v -64 -480 0
v -32 -480 0
v -64 -512 0
v -96 -512 0
v -96 -480 0
v -64 -480 0
v -96 -512 0
v -128 -512 0
v -128 -480 0
v -96 -480 0
v -128 -512 0
v -160 -512 0
v -160 -480 0
v -128 -480 0
v -160 -512 0
v -192 -512 0
v -192 -480 0
v -160 -480 0
v -192 -512 0
v -224 -512 0
v -224 -480 0
v -192 -480 0
v -224 -512 0
v -256 -512 0
v -256 -480 0
v -224 -480 0
v -256 -512 0
v -288 -512 0
v -288 -480 0
v -256 -480 0
v -288 -512 0
v -320 -512 0
v -320 -480 0
v -288 -480 0

# Texture cooridinates (Count = 22)
vt 0.75 0.1875
vt 0.8125 0.1875
vt 0.8125 0.25
vt 0.75 0.25
vt 0.5625 0.1875
vt 0.625 0.1875
vt 0.625 0.25
vt 0.5625 0.25
vt 0.6875 0.1875
vt 0.6875 0.25
vt 0.6875 0.3125
vt 0.625 0.3125
vt 0.5 0.25
vt 0.5625 0.3125
vt 0.5 0.3125
vt 0.8125 0.3125
vt 0.75 0.3125
vt 0.6875 0.375
vt 0.625 0.375
vt 0.5 0.1875
vt 0.5625 0.375
vt 0.5 0.375

# Normal
vn 0 0 -1

# Mesh description
g floor7_mesh_0005

# Faces
f 1/1/1 2/2/1 3/3/1 4/4/1
f 5/5/1 6/6/1 7/7/1 8/8/1
f 9/5/1 10/6/1 11/7/1 12/8/1
f 13/5/1 14/6/1 15/7/1 16/8/1
f 17/5/1 18/6/1 19/7/1 20/8/1
f 21/5/1 22/6/1 23/7/1 24/8/1
f 25/5/1 26/6/1 27/7/1 28/8/1
f 29/5/1 30/6/1 31/7/1 32/8/1
f 33/5/1 34/6/1 35/7/1 36/8/1
f 37/9/1 38/1/1 39/4/1 40/10/1
f 41/7/1 42/10/1 43/11/1 44/12/1
f 45/13/1 46/8/1 47/14/1 48/15/1
f 49/7/1 50/10/1 51/11/1 52/12/1
f 53/13/1 54/8/1 55/14/1 56/15/1
f 57/7/1 58/10/1 59/11/1 60/12/1
f 61/7/1 62/10/1 63/11/1 64/12/1
f 65/13/1 66/8/1 67/14/1 68/15/1
f 69/4/1 70/3/1 71/16/1 72/17/1
f 73/5/1 74/6/1 75/7/1 76/8/1
f 77/5/1 78/6/1 79/7/1 80/8/1
f 81/5/1 82/6/1 83/7/1 84/8/1
f 85/5/1 86/6/1 87/7/1 88/8/1
f 89/5/1 90/6/1 91/7/1 92/8/1
f 93/5/1 94/6/1 95/7/1 96/8/1
f 97/12/1 98/11/1 99/18/1 100/19/1
f 101/13/1 102/8/1 103/14/1 104/15/1
f 105/7/1 106/10/1 107/11/1 108/12/1
f 109/20/1 110/5/1 111/8/1 112/13/1
f 113/5/1 114/6/1 115/7/1 116/8/1
f 117/5/1 118/6/1 119/7/1 120/8/1
f 121/5/1 122/6/1 123/7/1 124/8/1
f 125/5/1 126/6/1 127/7/1 128/8/1
f 129/9/1 130/1/1 131/4/1 132/10/1
f 133/1/1 134/2/1 135/3/1 136/4/1
f 137/5/1 138/6/1 139/7/1 140/8/1
f 141/5/1 142/6/1 143/7/1 144/8/1
f 145/5/1 146/6/1 147/7/1 148/8/1
f 149/5/1 150/6/1 151/7/1 152/8/1
f 153/5/1 154/6/1 155/7/1 156/8/1
f 157/12/1 158/11/1 159/18/1 160/19/1
f 161/7/1 162/10/1 163/11/1 164/12/1
f 165/13/1 166/8/1 167/14/1 168/15/1
f 169/7/1 170/10/1 171/11/1 172/12/1
f 173/7/1 174/10/1 175/11/1 176/12/1
f 177/7/1 178/10/1 179/11/1 180/12/1
f 181/15/1 182/14/1 183/21/1 184/22/1
f 185/5/1 186/6/1 187/7/1 188/8/1
f 189/12/1 190/11/1 191/18/1 192/19/1
f 193/13/1 194/8/1 195/14/1 196/15/1
f 197/7/1 198/10/1 199/11/1 200/12/1
f 201/7/1 202/10/1 203/11/1 204/12/1
f 205/7/1 206/10/1 207/11/1 208/12/1
f 209/13/1 210/8/1 211/14/1 212/15/1
f 213/7/1 214/10/1 215/11/1 216/12/1
f 217/13/1 218/8/1 219/14/1 220/15/1
f 221/4/1 222/3/1 223/16/1 224/17/1
f 225/5/1 226/6/1 227/7/1 228/8/1
f 229/5/1 230/6/1 231/7/1 232/8/1
f 233/5/1 234/6/1 235/7/1 236/8/1
f 237/5/1 238/6/1 239/7/1 240/8/1
f 241/9/1 242/1/1 243/4/1 244/10/1
f 245/4/1 246/3/1 247/16/1 248/17/1
f 249/6/1 250/9/1 251/10/1 252/7/1
f 253/13/1 254/8/1 255/14/1 256/15/1
f 257/7/1 258/10/1 259/11/1 260/12/1
f 261/13/1 262/8/1 263/14/1 264/15/1
f 265/13/1 266/8/1 267/14/1 268/15/1
f 269/13/1 270/8/1 271/14/1 272/15/1
f 273/7/1 274/10/1 275/11/1 276/12/1
f 277/13/1 278/8/1 279/14/1 280/15/1
f 281/1/1 282/2/1 283/3/1 284/4/1
f 285/5/1 286/6/1 287/7/1 288/8/1
f 289/5/1 290/6/1 291/7/1 292/8/1
f 293/5/1 294/6/1 295/7/1 296/8/1
f 297/5/1 298/6/1 299/7/1 300/8/1
f 301/10/1 302/4/1 303/17/1 304/11/1
f 305/1/1 306/2/1 307/3/1 308/4/1
f 309/12/1 310/11/1 311/18/1 312/19/1
f 313/13/1 314/8/1 315/14/1 316/15/1
f 317/7/1 318/10/1 319/11/1 320/12/1
f 321/13/1 322/8/1 323/14/1 324/15/1
f 325/7/1 326/10/1 327/11/1 328/12/1
f 329/7/1 330/10/1 331/11/1 332/12/1
f 333/7/1 334/10/1 335/11/1 336/12/1
f 337/13/1 338/8/1 339/14/1 340/15/1
f 341/4/1 342/3/1 343/16/1 344/17/1
f 345/5/1 346/6/1 347/7/1 348/8/1
f 349/5/1 350/6/1 351/7/1 352/8/1
f 353/10/1 354/4/1 355/17/1 356/11/1
f 357/7/1 358/10/1 359/11/1 360/12/1
f 361/7/1 362/10/1 363/11/1 364/12/1
f 365/7/1 366/10/1 367/11/1 368/12/1
f 369/13/1 370/8/1 371/14/1 372/15/1
f 373/4/1 374/3/1 375/16/1 376/17/1
f 377/5/1 378/6/1 379/7/1 380/8/1
f 381/5/1 382/6/1 383/7/1 384/8/1
f 385/5/1 386/6/1 387/7/1 388/8/1
f 389/5/1 390/6/1 391/7/1 392/8/1
f 393/5/1 394/6/1 395/7/1 396/8/1
f 397/6/1 398/9/1 399/10/1 400/7/1
f 401/4/1 402/3/1 403/16/1 404/17/1
f 405/5/1 406/6/1 407/7/1 408/8/1
f 409/10/1 410/4/1 411/17/1 412/11/1

