# Tiled2Unity generated file. Do not modify by hand.
# Wavefront file for 'floor6_mesh_0010.obj'

# Vertices (Count = 12)
v -288 -320 0
v -320 -320 0
v -320 -288 0
v -288 -288 0
v -320 -320 0
v -352 -320 0
v -352 -288 0
v -320 -288 0
v -352 -320 0
v -384 -320 0
v -384 -288 0
v -352 -288 0

# Texture cooridinates (Count = 8)
vt 0.5 0.1875
vt 0.5625 0.1875
vt 0.5625 0.25
vt 0.5 0.25
vt 0.625 0.1875
vt 0.625 0.25
vt 0.6875 0.1875
vt 0.6875 0.25

# Normal
vn 0 0 -1

# Mesh description
g floor6_mesh_0010

# Faces
f 1/1/1 2/2/1 3/3/1 4/4/1
f 5/2/1 6/5/1 7/6/1 8/3/1
f 9/5/1 10/7/1 11/8/1 12/6/1

