# Tiled2Unity generated file. Do not modify by hand.
# Wavefront file for 'floor2_mesh_0008.obj'

# Vertices (Count = 48)
v -96 -96 0
v -128 -96 0
v -128 -64 0
v -96 -64 0
v -128 -96 0
v -160 -96 0
v -160 -64 0
v -128 -64 0
v -160 -96 0
v -192 -96 0
v -192 -64 0
v -160 -64 0
v -192 -96 0
v -224 -96 0
v -224 -64 0
v -192 -64 0
v -96 -128 0
v -128 -128 0
v -128 -96 0
v -96 -96 0
v -128 -128 0
v -160 -128 0
v -160 -96 0
v -128 -96 0
v -160 -128 0
v -192 -128 0
v -192 -96 0
v -160 -96 0
v -192 -128 0
v -224 -128 0
v -224 -96 0
v -192 -96 0
v -160 -256 0
v -192 -256 0
v -192 -224 0
v -160 -224 0
v -192 -256 0
v -224 -256 0
v -224 -224 0
v -192 -224 0
v -224 -256 0
v -256 -256 0
v -256 -224 0
v -224 -224 0
v -256 -256 0
v -288 -256 0
v -288 -224 0
v -256 -224 0

# Texture cooridinates (Count = 22)
vt 0.5625 0.625
vt 0.625 0.625
vt 0.625 0.6875
vt 0.5625 0.6875
vt 0.6875 0.5
vt 0.75 0.5
vt 0.75 0.5625
vt 0.6875 0.5625
vt 0.6875 0.625
vt 0.6875 0.6875
vt 0.5625 0.5625
vt 0.625 0.5625
vt 0.6875 0.4375
vt 0.75 0.4375
vt 0.1875 0.75
vt 0.25 0.75
vt 0.25 0.8125
vt 0.1875 0.8125
vt 0.125 0.75
vt 0.125 0.8125
vt 0.0625 0.75
vt 0.0625 0.8125

# Normal
vn 0 0 -1

# Mesh description
g floor2_mesh_0008

# Faces
f 1/1/1 2/2/1 3/3/1 4/4/1
f 5/5/1 6/6/1 7/7/1 8/8/1
f 9/5/1 10/6/1 11/7/1 12/8/1
f 13/2/1 14/9/1 15/10/1 16/3/1
f 17/11/1 18/12/1 19/2/1 20/1/1
f 21/13/1 22/14/1 23/6/1 24/5/1
f 25/13/1 26/14/1 27/6/1 28/5/1
f 29/12/1 30/8/1 31/9/1 32/2/1
f 33/15/1 34/16/1 35/17/1 36/18/1
f 37/19/1 38/15/1 39/18/1 40/20/1
f 41/21/1 42/19/1 43/20/1 44/22/1
f 45/15/1 46/16/1 47/17/1 48/18/1

