# Tiled2Unity generated file. Do not modify by hand.
# Wavefront file for 'floor2_mesh_0003.obj'

# Vertices (Count = 356)
v -32 -32 0
v -64 -32 0
v -64 0 0
v -32 0 0
v -64 -32 0
v -96 -32 0
v -96 0 0
v -64 0 0
v -96 -32 0
v -128 -32 0
v -128 0 0
v -96 0 0
v -128 -32 0
v -160 -32 0
v -160 0 0
v -128 0 0
v -160 -32 0
v -192 -32 0
v -192 0 0
v -160 0 0
v -192 -32 0
v -224 -32 0
v -224 0 0
v -192 0 0
v -224 -32 0
v -256 -32 0
v -256 0 0
v -224 0 0
v -256 -32 0
v -288 -32 0
v -288 0 0
v -256 0 0
v -288 -32 0
v -320 -32 0
v -320 0 0
v -288 0 0
v -320 -32 0
v -352 -32 0
v -352 0 0
v -320 0 0
v -352 -32 0
v -384 -32 0
v -384 0 0
v -352 0 0
v -384 -32 0
v -416 -32 0
v -416 0 0
v -384 0 0
v -416 -32 0
v -448 -32 0
v -448 0 0
v -416 0 0
v -448 -32 0
v -480 -32 0
v -480 0 0
v -448 0 0
v -32 -64 0
v -64 -64 0
v -64 -32 0
v -32 -32 0
v -448 -64 0
v -480 -64 0
v -480 -32 0
v -448 -32 0
v -32 -96 0
v -64 -96 0
v -64 -64 0
v -32 -64 0
v -96 -96 0
v -128 -96 0
v -128 -64 0
v -96 -64 0
v -128 -96 0
v -160 -96 0
v -160 -64 0
v -128 -64 0
v -160 -96 0
v -192 -96 0
v -192 -64 0
v -160 -64 0
v -192 -96 0
v -224 -96 0
v -224 -64 0
v -192 -64 0
v -224 -96 0
v -256 -96 0
v -256 -64 0
v -224 -64 0
v -448 -96 0
v -480 -96 0
v -480 -64 0
v -448 -64 0
v -32 -128 0
v -64 -128 0
v -64 -96 0
v -32 -96 0
v -224 -128 0
v -256 -128 0
v -256 -96 0
v -224 -96 0
v -448 -128 0
v -480 -128 0
v -480 -96 0
v -448 -96 0
v -32 -160 0
v -64 -160 0
v -64 -128 0
v -32 -128 0
v -224 -160 0
v -256 -160 0
v -256 -128 0
v -224 -128 0
v -256 -160 0
v -288 -160 0
v -288 -128 0
v -256 -128 0
v -288 -160 0
v -320 -160 0
v -320 -128 0
v -288 -128 0
v -320 -160 0
v -352 -160 0
v -352 -128 0
v -320 -128 0
v -352 -160 0
v -384 -160 0
v -384 -128 0
v -352 -128 0
v -384 -160 0
v -416 -160 0
v -416 -128 0
v -384 -128 0
v -416 -160 0
v -448 -160 0
v -448 -128 0
v -416 -128 0
v -448 -160 0
v -480 -160 0
v -480 -128 0
v -448 -128 0
v -32 -192 0
v -64 -192 0
v -64 -160 0
v -32 -160 0
v -448 -192 0
v -480 -192 0
v -480 -160 0
v -448 -160 0
v -32 -224 0
v -64 -224 0
v -64 -192 0
v -32 -192 0
v -64 -224 0
v -96 -224 0
v -96 -192 0
v -64 -192 0
v -96 -224 0
v -128 -224 0
v -128 -192 0
v -96 -192 0
v -128 -224 0
v -160 -224 0
v -160 -192 0
v -128 -192 0
v -160 -224 0
v -192 -224 0
v -192 -192 0
v -160 -192 0
v -192 -224 0
v -224 -224 0
v -224 -192 0
v -192 -192 0
v -224 -224 0
v -256 -224 0
v -256 -192 0
v -224 -192 0
v -256 -224 0
v -288 -224 0
v -288 -192 0
v -256 -192 0
v -288 -224 0
v -320 -224 0
v -320 -192 0
v -288 -192 0
v -320 -224 0
v -352 -224 0
v -352 -192 0
v -320 -192 0
v -352 -224 0
v -384 -224 0
v -384 -192 0
v -352 -192 0
v -384 -224 0
v -416 -224 0
v -416 -192 0
v -384 -192 0
v -448 -224 0
v -480 -224 0
v -480 -192 0
v -448 -192 0
v -32 -256 0
v -64 -256 0
v -64 -224 0
v -32 -224 0
v -384 -256 0
v -416 -256 0
v -416 -224 0
v -384 -224 0
v -448 -256 0
v -480 -256 0
v -480 -224 0
v -448 -224 0
v -32 -288 0
v -64 -288 0
v -64 -256 0
v -32 -256 0
v -384 -288 0
v -416 -288 0
v -416 -256 0
v -384 -256 0
v -448 -288 0
v -480 -288 0
v -480 -256 0
v -448 -256 0
v -32 -320 0
v -64 -320 0
v -64 -288 0
v -32 -288 0
v -384 -320 0
v -416 -320 0
v -416 -288 0
v -384 -288 0
v -448 -320 0
v -480 -320 0
v -480 -288 0
v -448 -288 0
v -32 -352 0
v -64 -352 0
v -64 -320 0
v -32 -320 0
v -64 -352 0
v -96 -352 0
v -96 -320 0
v -64 -320 0
v -96 -352 0
v -128 -352 0
v -128 -320 0
v -96 -320 0
v -128 -352 0
v -160 -352 0
v -160 -320 0
v -128 -320 0
v -160 -352 0
v -192 -352 0
v -192 -320 0
v -160 -320 0
v -192 -352 0
v -224 -352 0
v -224 -320 0
v -192 -320 0
v -256 -352 0
v -288 -352 0
v -288 -320 0
v -256 -320 0
v -288 -352 0
v -320 -352 0
v -320 -320 0
v -288 -320 0
v -320 -352 0
v -352 -352 0
v -352 -320 0
v -320 -320 0
v -352 -352 0
v -384 -352 0
v -384 -320 0
v -352 -320 0
v -384 -352 0
v -416 -352 0
v -416 -320 0
v -384 -320 0
v -448 -352 0
v -480 -352 0
v -480 -320 0
v -448 -320 0
v -32 -384 0
v -64 -384 0
v -64 -352 0
v -32 -352 0
v -448 -384 0
v -480 -384 0
v -480 -352 0
v -448 -352 0
v -32 -416 0
v -64 -416 0
v -64 -384 0
v -32 -384 0
v -64 -416 0
v -96 -416 0
v -96 -384 0
v -64 -384 0
v -96 -416 0
v -128 -416 0
v -128 -384 0
v -96 -384 0
v -128 -416 0
v -160 -416 0
v -160 -384 0
v -128 -384 0
v -160 -416 0
v -192 -416 0
v -192 -384 0
v -160 -384 0
v -192 -416 0
v -224 -416 0
v -224 -384 0
v -192 -384 0
v -224 -416 0
v -256 -416 0
v -256 -384 0
v -224 -384 0
v -256 -416 0
v -288 -416 0
v -288 -384 0
v -256 -384 0
v -288 -416 0
v -320 -416 0
v -320 -384 0
v -288 -384 0
v -320 -416 0
v -352 -416 0
v -352 -384 0
v -320 -384 0
v -352 -416 0
v -384 -416 0
v -384 -384 0
v -352 -384 0
v -384 -416 0
v -416 -416 0
v -416 -384 0
v -384 -384 0
v -448 -416 0
v -480 -416 0
v -480 -384 0
v -448 -384 0
v -384 -448 0
v -416 -448 0
v -416 -416 0
v -384 -416 0
v -416 -448 0
v -448 -448 0
v -448 -416 0
v -416 -416 0
v -448 -448 0
v -480 -448 0
v -480 -416 0
v -448 -416 0

# Texture cooridinates (Count = 20)
vt 0.75 0.1875
vt 0.8125 0.1875
vt 0.8125 0.25
vt 0.75 0.25
vt 0.5625 0.1875
vt 0.625 0.1875
vt 0.625 0.25
vt 0.5625 0.25
vt 0.6875 0.1875
vt 0.6875 0.25
vt 0.6875 0.3125
vt 0.625 0.3125
vt 0.5 0.25
vt 0.5625 0.3125
vt 0.5 0.3125
vt 0.75 0.3125
vt 0.75 0.375
vt 0.6875 0.375
vt 0.625 0.375
vt 0.8125 0.3125

# Normal
vn 0 0 -1

# Mesh description
g floor2_mesh_0003

# Faces
f 1/1/1 2/2/1 3/3/1 4/4/1
f 5/5/1 6/6/1 7/7/1 8/8/1
f 9/5/1 10/6/1 11/7/1 12/8/1
f 13/5/1 14/6/1 15/7/1 16/8/1
f 17/5/1 18/6/1 19/7/1 20/8/1
f 21/5/1 22/6/1 23/7/1 24/8/1
f 25/5/1 26/6/1 27/7/1 28/8/1
f 29/5/1 30/6/1 31/7/1 32/8/1
f 33/5/1 34/6/1 35/7/1 36/8/1
f 37/5/1 38/6/1 39/7/1 40/8/1
f 41/5/1 42/6/1 43/7/1 44/8/1
f 45/5/1 46/6/1 47/7/1 48/8/1
f 49/5/1 50/6/1 51/7/1 52/8/1
f 53/9/1 54/1/1 55/4/1 56/10/1
f 57/7/1 58/10/1 59/11/1 60/12/1
f 61/13/1 62/8/1 63/14/1 64/15/1
f 65/7/1 66/10/1 67/11/1 68/12/1
f 69/11/1 70/16/1 71/17/1 72/18/1
f 73/5/1 74/6/1 75/7/1 76/8/1
f 77/5/1 78/6/1 79/7/1 80/8/1
f 81/5/1 82/6/1 83/7/1 84/8/1
f 85/12/1 86/11/1 87/18/1 88/19/1
f 89/13/1 90/8/1 91/14/1 92/15/1
f 93/7/1 94/10/1 95/11/1 96/12/1
f 97/7/1 98/10/1 99/11/1 100/12/1
f 101/13/1 102/8/1 103/14/1 104/15/1
f 105/7/1 106/10/1 107/11/1 108/12/1
f 109/4/1 110/3/1 111/20/1 112/16/1
f 113/5/1 114/6/1 115/7/1 116/8/1
f 117/5/1 118/6/1 119/7/1 120/8/1
f 121/5/1 122/6/1 123/7/1 124/8/1
f 125/5/1 126/6/1 127/7/1 128/8/1
f 129/5/1 130/6/1 131/7/1 132/8/1
f 133/5/1 134/6/1 135/7/1 136/8/1
f 137/13/1 138/8/1 139/14/1 140/15/1
f 141/7/1 142/10/1 143/11/1 144/12/1
f 145/13/1 146/8/1 147/14/1 148/15/1
f 149/7/1 150/10/1 151/11/1 152/12/1
f 153/5/1 154/6/1 155/7/1 156/8/1
f 157/5/1 158/6/1 159/7/1 160/8/1
f 161/5/1 162/6/1 163/7/1 164/8/1
f 165/5/1 166/6/1 167/7/1 168/8/1
f 169/5/1 170/6/1 171/7/1 172/8/1
f 173/5/1 174/6/1 175/7/1 176/8/1
f 177/5/1 178/6/1 179/7/1 180/8/1
f 181/5/1 182/6/1 183/7/1 184/8/1
f 185/5/1 186/6/1 187/7/1 188/8/1
f 189/5/1 190/6/1 191/7/1 192/8/1
f 193/12/1 194/11/1 195/18/1 196/19/1
f 197/13/1 198/8/1 199/14/1 200/15/1
f 201/7/1 202/10/1 203/11/1 204/12/1
f 205/7/1 206/10/1 207/11/1 208/12/1
f 209/13/1 210/8/1 211/14/1 212/15/1
f 213/7/1 214/10/1 215/11/1 216/12/1
f 217/7/1 218/10/1 219/11/1 220/12/1
f 221/13/1 222/8/1 223/14/1 224/15/1
f 225/7/1 226/10/1 227/11/1 228/12/1
f 229/7/1 230/10/1 231/11/1 232/12/1
f 233/13/1 234/8/1 235/14/1 236/15/1
f 237/7/1 238/10/1 239/11/1 240/12/1
f 241/5/1 242/6/1 243/7/1 244/8/1
f 245/5/1 246/6/1 247/7/1 248/8/1
f 249/5/1 250/6/1 251/7/1 252/8/1
f 253/5/1 254/6/1 255/7/1 256/8/1
f 257/5/1 258/6/1 259/7/1 260/8/1
f 261/5/1 262/6/1 263/7/1 264/8/1
f 265/5/1 266/6/1 267/7/1 268/8/1
f 269/5/1 270/6/1 271/7/1 272/8/1
f 273/5/1 274/6/1 275/7/1 276/8/1
f 277/6/1 278/9/1 279/10/1 280/7/1
f 281/13/1 282/8/1 283/14/1 284/15/1
f 285/7/1 286/10/1 287/11/1 288/12/1
f 289/13/1 290/8/1 291/14/1 292/15/1
f 293/4/1 294/3/1 295/20/1 296/16/1
f 297/5/1 298/6/1 299/7/1 300/8/1
f 301/5/1 302/6/1 303/7/1 304/8/1
f 305/5/1 306/6/1 307/7/1 308/8/1
f 309/5/1 310/6/1 311/7/1 312/8/1
f 313/5/1 314/6/1 315/7/1 316/8/1
f 317/5/1 318/6/1 319/7/1 320/8/1
f 321/5/1 322/6/1 323/7/1 324/8/1
f 325/5/1 326/6/1 327/7/1 328/8/1
f 329/5/1 330/6/1 331/7/1 332/8/1
f 333/5/1 334/6/1 335/7/1 336/8/1
f 337/12/1 338/11/1 339/18/1 340/19/1
f 341/13/1 342/8/1 343/14/1 344/15/1
f 345/4/1 346/3/1 347/20/1 348/16/1
f 349/5/1 350/6/1 351/7/1 352/8/1
f 353/10/1 354/4/1 355/16/1 356/11/1

