# Tiled2Unity generated file. Do not modify by hand.
# Wavefront file for 'floor19_mesh_0004.obj'

# Vertices (Count = 16)
v 0 -224 0
v -32 -224 0
v -32 -192 0
v 0 -192 0
v -32 -224 0
v -64 -224 0
v -64 -192 0
v -32 -192 0
v -64 -224 0
v -96 -224 0
v -96 -192 0
v -64 -192 0
v -384 -288 0
v -416 -288 0
v -416 -256 0
v -384 -256 0

# Texture cooridinates (Count = 4)
vt 0.75 0.9375
vt 0.875 0.9375
vt 0.875 1
vt 0.75 1

# Normal
vn 0 0 -1

# Mesh description
g floor19_mesh_0004

# Faces
f 1/1/1 2/2/1 3/3/1 4/4/1
f 5/1/1 6/2/1 7/3/1 8/4/1
f 9/1/1 10/2/1 11/3/1 12/4/1
f 13/3/1 14/4/1 15/1/1 16/2/1

