# Tiled2Unity generated file. Do not modify by hand.
# Wavefront file for 'floor19_mesh_0005.obj'

# Vertices (Count = 128)
v 0 -64 0
v -32 -64 0
v -32 -32 0
v 0 -32 0
v -32 -64 0
v -64 -64 0
v -64 -32 0
v -32 -32 0
v -64 -64 0
v -96 -64 0
v -96 -32 0
v -64 -32 0
v -96 -64 0
v -128 -64 0
v -128 -32 0
v -96 -32 0
v -128 -64 0
v -160 -64 0
v -160 -32 0
v -128 -32 0
v -160 -64 0
v -192 -64 0
v -192 -32 0
v -160 -32 0
v -192 -64 0
v -224 -64 0
v -224 -32 0
v -192 -32 0
v 0 -96 0
v -32 -96 0
v -32 -64 0
v 0 -64 0
v -192 -96 0
v -224 -96 0
v -224 -64 0
v -192 -64 0
v 0 -128 0
v -32 -128 0
v -32 -96 0
v 0 -96 0
v -192 -128 0
v -224 -128 0
v -224 -96 0
v -192 -96 0
v 0 -160 0
v -32 -160 0
v -32 -128 0
v 0 -128 0
v -192 -160 0
v -224 -160 0
v -224 -128 0
v -192 -128 0
v 0 -192 0
v -32 -192 0
v -32 -160 0
v 0 -160 0
v -192 -192 0
v -224 -192 0
v -224 -160 0
v -192 -160 0
v 0 -224 0
v -32 -224 0
v -32 -192 0
v 0 -192 0
v -64 -224 0
v -96 -224 0
v -96 -192 0
v -64 -192 0
v -96 -224 0
v -128 -224 0
v -128 -192 0
v -96 -192 0
v -128 -224 0
v -160 -224 0
v -160 -192 0
v -128 -192 0
v -160 -224 0
v -192 -224 0
v -192 -192 0
v -160 -192 0
v -192 -224 0
v -224 -224 0
v -224 -192 0
v -192 -192 0
v 0 -256 0
v -32 -256 0
v -32 -224 0
v 0 -224 0
v -64 -256 0
v -96 -256 0
v -96 -224 0
v -64 -224 0
v 0 -288 0
v -32 -288 0
v -32 -256 0
v 0 -256 0
v -64 -288 0
v -96 -288 0
v -96 -256 0
v -64 -256 0
v 0 -320 0
v -32 -320 0
v -32 -288 0
v 0 -288 0
v -64 -320 0
v -96 -320 0
v -96 -288 0
v -64 -288 0
v 0 -352 0
v -32 -352 0
v -32 -320 0
v 0 -320 0
v -64 -352 0
v -96 -352 0
v -96 -320 0
v -64 -320 0
v 0 -384 0
v -32 -384 0
v -32 -352 0
v 0 -352 0
v -32 -384 0
v -64 -384 0
v -64 -352 0
v -32 -352 0
v -64 -384 0
v -96 -384 0
v -96 -352 0
v -64 -352 0

# Texture cooridinates (Count = 19)
vt 0.5 0.3125
vt 0.5625 0.3125
vt 0.5625 0.375
vt 0.5 0.375
vt 0.5625 0.1875
vt 0.625 0.1875
vt 0.625 0.25
vt 0.5625 0.25
vt 0.6875 0.1875
vt 0.75 0.1875
vt 0.75 0.25
vt 0.6875 0.25
vt 0.5 0.25
vt 0.8125 0.1875
vt 0.8125 0.25
vt 0.75 0.3125
vt 0.6875 0.3125
vt 0.625 0.3125
vt 0.5 0.1875

# Normal
vn 0 0 -1

# Mesh description
g floor19_mesh_0005

# Faces
f 1/1/1 2/2/1 3/3/1 4/4/1
f 5/5/1 6/6/1 7/7/1 8/8/1
f 9/5/1 10/6/1 11/7/1 12/8/1
f 13/5/1 14/6/1 15/7/1 16/8/1
f 17/5/1 18/6/1 19/7/1 20/8/1
f 21/5/1 22/6/1 23/7/1 24/8/1
f 25/9/1 26/10/1 27/11/1 28/12/1
f 29/13/1 30/8/1 31/2/1 32/1/1
f 33/13/1 34/8/1 35/2/1 36/1/1
f 37/13/1 38/8/1 39/2/1 40/1/1
f 41/13/1 42/8/1 43/2/1 44/1/1
f 45/13/1 46/8/1 47/2/1 48/1/1
f 49/13/1 50/8/1 51/2/1 52/1/1
f 53/13/1 54/8/1 55/2/1 56/1/1
f 57/13/1 58/8/1 59/2/1 60/1/1
f 61/13/1 62/8/1 63/2/1 64/1/1
f 65/10/1 66/14/1 67/15/1 68/11/1
f 69/5/1 70/6/1 71/7/1 72/8/1
f 73/5/1 74/6/1 75/7/1 76/8/1
f 77/5/1 78/6/1 79/7/1 80/8/1
f 81/12/1 82/11/1 83/16/1 84/17/1
f 85/13/1 86/8/1 87/2/1 88/1/1
f 89/7/1 90/12/1 91/17/1 92/18/1
f 93/13/1 94/8/1 95/2/1 96/1/1
f 97/7/1 98/12/1 99/17/1 100/18/1
f 101/13/1 102/8/1 103/2/1 104/1/1
f 105/7/1 106/12/1 107/17/1 108/18/1
f 109/13/1 110/8/1 111/2/1 112/1/1
f 113/7/1 114/12/1 115/17/1 116/18/1
f 117/19/1 118/5/1 119/8/1 120/13/1
f 121/5/1 122/6/1 123/7/1 124/8/1
f 125/6/1 126/9/1 127/12/1 128/7/1

