# Tiled2Unity generated file. Do not modify by hand.
# Wavefront file for 'floor15_mesh_0006.obj'

# Vertices (Count = 272)
v -32 -64 0
v -64 -64 0
v -64 -32 0
v -32 -32 0
v -64 -64 0
v -96 -64 0
v -96 -32 0
v -64 -32 0
v -96 -64 0
v -128 -64 0
v -128 -32 0
v -96 -32 0
v -128 -64 0
v -160 -64 0
v -160 -32 0
v -128 -32 0
v -160 -64 0
v -192 -64 0
v -192 -32 0
v -160 -32 0
v -192 -64 0
v -224 -64 0
v -224 -32 0
v -192 -32 0
v -224 -64 0
v -256 -64 0
v -256 -32 0
v -224 -32 0
v -32 -96 0
v -64 -96 0
v -64 -64 0
v -32 -64 0
v -224 -96 0
v -256 -96 0
v -256 -64 0
v -224 -64 0
v -352 -96 0
v -384 -96 0
v -384 -64 0
v -352 -64 0
v -384 -96 0
v -416 -96 0
v -416 -64 0
v -384 -64 0
v -448 -96 0
v -480 -96 0
v -480 -64 0
v -448 -64 0
v -32 -128 0
v -64 -128 0
v -64 -96 0
v -32 -96 0
v -224 -128 0
v -256 -128 0
v -256 -96 0
v -224 -96 0
v -352 -128 0
v -384 -128 0
v -384 -96 0
v -352 -96 0
v -32 -160 0
v -64 -160 0
v -64 -128 0
v -32 -128 0
v -224 -160 0
v -256 -160 0
v -256 -128 0
v -224 -128 0
v -32 -192 0
v -64 -192 0
v -64 -160 0
v -32 -160 0
v -64 -192 0
v -96 -192 0
v -96 -160 0
v -64 -160 0
v -96 -192 0
v -128 -192 0
v -128 -160 0
v -96 -160 0
v -128 -192 0
v -160 -192 0
v -160 -160 0
v -128 -160 0
v -160 -192 0
v -192 -192 0
v -192 -160 0
v -160 -160 0
v -224 -192 0
v -256 -192 0
v -256 -160 0
v -224 -160 0
v -256 -192 0
v -288 -192 0
v -288 -160 0
v -256 -160 0
v -288 -192 0
v -320 -192 0
v -320 -160 0
v -288 -160 0
v -320 -192 0
v -352 -192 0
v -352 -160 0
v -320 -160 0
v -352 -192 0
v -384 -192 0
v -384 -160 0
v -352 -160 0
v -32 -224 0
v -64 -224 0
v -64 -192 0
v -32 -192 0
v -352 -224 0
v -384 -224 0
v -384 -192 0
v -352 -192 0
v -32 -256 0
v -64 -256 0
v -64 -224 0
v -32 -224 0
v -352 -256 0
v -384 -256 0
v -384 -224 0
v -352 -224 0
v -32 -288 0
v -64 -288 0
v -64 -256 0
v -32 -256 0
v -352 -288 0
v -384 -288 0
v -384 -256 0
v -352 -256 0
v -32 -320 0
v -64 -320 0
v -64 -288 0
v -32 -288 0
v -64 -320 0
v -96 -320 0
v -96 -288 0
v -64 -288 0
v -96 -320 0
v -128 -320 0
v -128 -288 0
v -96 -288 0
v -128 -320 0
v -160 -320 0
v -160 -288 0
v -128 -288 0
v -160 -320 0
v -192 -320 0
v -192 -288 0
v -160 -288 0
v -192 -320 0
v -224 -320 0
v -224 -288 0
v -192 -288 0
v -224 -320 0
v -256 -320 0
v -256 -288 0
v -224 -288 0
v -256 -320 0
v -288 -320 0
v -288 -288 0
v -256 -288 0
v -288 -320 0
v -320 -320 0
v -320 -288 0
v -288 -288 0
v -320 -320 0
v -352 -320 0
v -352 -288 0
v -320 -288 0
v -352 -320 0
v -384 -320 0
v -384 -288 0
v -352 -288 0
v -32 -352 0
v -64 -352 0
v -64 -320 0
v -32 -320 0
v -64 -352 0
v -96 -352 0
v -96 -320 0
v -64 -320 0
v -96 -352 0
v -128 -352 0
v -128 -320 0
v -96 -320 0
v -128 -352 0
v -160 -352 0
v -160 -320 0
v -128 -320 0
v -160 -352 0
v -192 -352 0
v -192 -320 0
v -160 -320 0
v -192 -352 0
v -224 -352 0
v -224 -320 0
v -192 -320 0
v -224 -352 0
v -256 -352 0
v -256 -320 0
v -224 -320 0
v -256 -352 0
v -288 -352 0
v -288 -320 0
v -256 -320 0
v -32 -384 0
v -64 -384 0
v -64 -352 0
v -32 -352 0
v -128 -384 0
v -160 -384 0
v -160 -352 0
v -128 -352 0
v -256 -384 0
v -288 -384 0
v -288 -352 0
v -256 -352 0
v -32 -416 0
v -64 -416 0
v -64 -384 0
v -32 -384 0
v -256 -416 0
v -288 -416 0
v -288 -384 0
v -256 -384 0
v -32 -448 0
v -64 -448 0
v -64 -416 0
v -32 -416 0
v -128 -448 0
v -160 -448 0
v -160 -416 0
v -128 -416 0
v -256 -448 0
v -288 -448 0
v -288 -416 0
v -256 -416 0
v -32 -480 0
v -64 -480 0
v -64 -448 0
v -32 -448 0
v -64 -480 0
v -96 -480 0
v -96 -448 0
v -64 -448 0
v -96 -480 0
v -128 -480 0
v -128 -448 0
v -96 -448 0
v -128 -480 0
v -160 -480 0
v -160 -448 0
v -128 -448 0
v -160 -480 0
v -192 -480 0
v -192 -448 0
v -160 -448 0
v -192 -480 0
v -224 -480 0
v -224 -448 0
v -192 -448 0
v -224 -480 0
v -256 -480 0
v -256 -448 0
v -224 -448 0
v -256 -480 0
v -288 -480 0
v -288 -448 0
v -256 -448 0

# Texture cooridinates (Count = 24)
vt 0.75 0.1875
vt 0.8125 0.1875
vt 0.8125 0.25
vt 0.75 0.25
vt 0.5625 0.1875
vt 0.625 0.1875
vt 0.625 0.25
vt 0.5625 0.25
vt 0.6875 0.1875
vt 0.6875 0.25
vt 0.6875 0.3125
vt 0.625 0.3125
vt 0.5 0.25
vt 0.5625 0.3125
vt 0.5 0.3125
vt 0.6875 0.375
vt 0.75 0.375
vt 0.75 0.4375
vt 0.6875 0.4375
vt 0.75 0.3125
vt 0.5 0.1875
vt 0.8125 0.3125
vt 0.8125 0.375
vt 0.8125 0.4375

# Normal
vn 0 0 -1

# Mesh description
g floor15_mesh_0006

# Faces
f 1/1/1 2/2/1 3/3/1 4/4/1
f 5/5/1 6/6/1 7/7/1 8/8/1
f 9/5/1 10/6/1 11/7/1 12/8/1
f 13/5/1 14/6/1 15/7/1 16/8/1
f 17/5/1 18/6/1 19/7/1 20/8/1
f 21/5/1 22/6/1 23/7/1 24/8/1
f 25/9/1 26/1/1 27/4/1 28/10/1
f 29/7/1 30/10/1 31/11/1 32/12/1
f 33/13/1 34/8/1 35/14/1 36/15/1
f 37/1/1 38/2/1 39/3/1 40/4/1
f 41/16/1 42/17/1 43/18/1 44/19/1
f 45/11/1 46/20/1 47/17/1 48/16/1
f 49/7/1 50/10/1 51/11/1 52/12/1
f 53/13/1 54/8/1 55/14/1 56/15/1
f 57/7/1 58/10/1 59/11/1 60/12/1
f 61/7/1 62/10/1 63/11/1 64/12/1
f 65/13/1 66/8/1 67/14/1 68/15/1
f 69/7/1 70/10/1 71/11/1 72/12/1
f 73/5/1 74/6/1 75/7/1 76/8/1
f 77/5/1 78/6/1 79/7/1 80/8/1
f 81/5/1 82/6/1 83/7/1 84/8/1
f 85/16/1 86/17/1 87/18/1 88/19/1
f 89/21/1 90/5/1 91/8/1 92/13/1
f 93/5/1 94/6/1 95/7/1 96/8/1
f 97/5/1 98/6/1 99/7/1 100/8/1
f 101/5/1 102/6/1 103/7/1 104/8/1
f 105/9/1 106/1/1 107/4/1 108/10/1
f 109/7/1 110/10/1 111/11/1 112/12/1
f 113/13/1 114/8/1 115/14/1 116/15/1
f 117/7/1 118/10/1 119/11/1 120/12/1
f 121/13/1 122/8/1 123/14/1 124/15/1
f 125/7/1 126/10/1 127/11/1 128/12/1
f 129/13/1 130/8/1 131/14/1 132/15/1
f 133/4/1 134/3/1 135/22/1 136/20/1
f 137/5/1 138/6/1 139/7/1 140/8/1
f 141/5/1 142/6/1 143/7/1 144/8/1
f 145/5/1 146/6/1 147/7/1 148/8/1
f 149/5/1 150/6/1 151/7/1 152/8/1
f 153/5/1 154/6/1 155/7/1 156/8/1
f 157/5/1 158/6/1 159/7/1 160/8/1
f 161/5/1 162/6/1 163/7/1 164/8/1
f 165/5/1 166/6/1 167/7/1 168/8/1
f 169/5/1 170/6/1 171/7/1 172/8/1
f 173/10/1 174/4/1 175/20/1 176/11/1
f 177/1/1 178/2/1 179/3/1 180/4/1
f 181/5/1 182/6/1 183/7/1 184/8/1
f 185/5/1 186/6/1 187/7/1 188/8/1
f 189/5/1 190/6/1 191/7/1 192/8/1
f 193/5/1 194/6/1 195/7/1 196/8/1
f 197/5/1 198/6/1 199/7/1 200/8/1
f 201/5/1 202/6/1 203/7/1 204/8/1
f 205/9/1 206/1/1 207/4/1 208/10/1
f 209/7/1 210/10/1 211/11/1 212/12/1
f 213/17/1 214/23/1 215/24/1 216/18/1
f 217/13/1 218/8/1 219/14/1 220/15/1
f 221/7/1 222/10/1 223/11/1 224/12/1
f 225/13/1 226/8/1 227/14/1 228/15/1
f 229/7/1 230/10/1 231/11/1 232/12/1
f 233/20/1 234/22/1 235/23/1 236/17/1
f 237/13/1 238/8/1 239/14/1 240/15/1
f 241/4/1 242/3/1 243/22/1 244/20/1
f 245/5/1 246/6/1 247/7/1 248/8/1
f 249/5/1 250/6/1 251/7/1 252/8/1
f 253/5/1 254/6/1 255/7/1 256/8/1
f 257/5/1 258/6/1 259/7/1 260/8/1
f 261/5/1 262/6/1 263/7/1 264/8/1
f 265/5/1 266/6/1 267/7/1 268/8/1
f 269/10/1 270/4/1 271/20/1 272/11/1

