# Tiled2Unity generated file. Do not modify by hand.
# Wavefront file for 'floor15_mesh_0004.obj'

# Vertices (Count = 76)
v -224 -32 0
v -256 -32 0
v -256 0 0
v -224 0 0
v -256 -32 0
v -288 -32 0
v -288 0 0
v -256 0 0
v -288 -32 0
v -320 -32 0
v -320 0 0
v -288 0 0
v -320 -32 0
v -352 -32 0
v -352 0 0
v -320 0 0
v -352 -32 0
v -384 -32 0
v -384 0 0
v -352 0 0
v -384 -32 0
v -416 -32 0
v -416 0 0
v -384 0 0
v -416 -32 0
v -448 -32 0
v -448 0 0
v -416 0 0
v -448 -32 0
v -480 -32 0
v -480 0 0
v -448 0 0
v -480 -32 0
v -512 -32 0
v -512 0 0
v -480 0 0
v -224 -64 0
v -256 -64 0
v -256 -32 0
v -224 -32 0
v -480 -64 0
v -512 -64 0
v -512 -32 0
v -480 -32 0
v -224 -96 0
v -256 -96 0
v -256 -64 0
v -224 -64 0
v -224 -128 0
v -256 -128 0
v -256 -96 0
v -224 -96 0
v -224 -160 0
v -256 -160 0
v -256 -128 0
v -224 -128 0
v -256 -160 0
v -288 -160 0
v -288 -128 0
v -256 -128 0
v -288 -160 0
v -320 -160 0
v -320 -128 0
v -288 -128 0
v -320 -160 0
v -352 -160 0
v -352 -128 0
v -320 -128 0
v -352 -160 0
v -384 -160 0
v -384 -128 0
v -352 -128 0
v -352 -192 0
v -384 -192 0
v -384 -160 0
v -352 -160 0

# Texture cooridinates (Count = 19)
vt 0.75 0.1875
vt 0.8125 0.1875
vt 0.8125 0.25
vt 0.75 0.25
vt 0.5625 0.1875
vt 0.625 0.1875
vt 0.625 0.25
vt 0.5625 0.25
vt 0.6875 0.1875
vt 0.6875 0.25
vt 0.6875 0.3125
vt 0.625 0.3125
vt 0.5 0.25
vt 0.5625 0.3125
vt 0.5 0.3125
vt 0.8125 0.3125
vt 0.75 0.3125
vt 0.6875 0.375
vt 0.625 0.375

# Normal
vn 0 0 -1

# Mesh description
g floor15_mesh_0004

# Faces
f 1/1/1 2/2/1 3/3/1 4/4/1
f 5/5/1 6/6/1 7/7/1 8/8/1
f 9/5/1 10/6/1 11/7/1 12/8/1
f 13/5/1 14/6/1 15/7/1 16/8/1
f 17/5/1 18/6/1 19/7/1 20/8/1
f 21/5/1 22/6/1 23/7/1 24/8/1
f 25/5/1 26/6/1 27/7/1 28/8/1
f 29/5/1 30/6/1 31/7/1 32/8/1
f 33/9/1 34/1/1 35/4/1 36/10/1
f 37/7/1 38/10/1 39/11/1 40/12/1
f 41/13/1 42/8/1 43/14/1 44/15/1
f 45/7/1 46/10/1 47/11/1 48/12/1
f 49/7/1 50/10/1 51/11/1 52/12/1
f 53/4/1 54/3/1 55/16/1 56/17/1
f 57/5/1 58/6/1 59/7/1 60/8/1
f 61/5/1 62/6/1 63/7/1 64/8/1
f 65/5/1 66/6/1 67/7/1 68/8/1
f 69/12/1 70/11/1 71/18/1 72/19/1
f 73/7/1 74/10/1 75/11/1 76/12/1

