# Tiled2Unity generated file. Do not modify by hand.
# Wavefront file for 'floor15_mesh_0007.obj'

# Vertices (Count = 136)
v -480 -96 0
v -512 -96 0
v -512 -64 0
v -480 -64 0
v -480 -128 0
v -512 -128 0
v -512 -96 0
v -480 -96 0
v -480 -160 0
v -512 -160 0
v -512 -128 0
v -480 -128 0
v -480 -192 0
v -512 -192 0
v -512 -160 0
v -480 -160 0
v -352 -224 0
v -384 -224 0
v -384 -192 0
v -352 -192 0
v -480 -224 0
v -512 -224 0
v -512 -192 0
v -480 -192 0
v -352 -256 0
v -384 -256 0
v -384 -224 0
v -352 -224 0
v -384 -256 0
v -416 -256 0
v -416 -224 0
v -384 -224 0
v -416 -256 0
v -448 -256 0
v -448 -224 0
v -416 -224 0
v -448 -256 0
v -480 -256 0
v -480 -224 0
v -448 -224 0
v -480 -256 0
v -512 -256 0
v -512 -224 0
v -480 -224 0
v -352 -288 0
v -384 -288 0
v -384 -256 0
v -352 -256 0
v -480 -288 0
v -512 -288 0
v -512 -256 0
v -480 -256 0
v -352 -320 0
v -384 -320 0
v -384 -288 0
v -352 -288 0
v -480 -320 0
v -512 -320 0
v -512 -288 0
v -480 -288 0
v -256 -352 0
v -288 -352 0
v -288 -320 0
v -256 -320 0
v -288 -352 0
v -320 -352 0
v -320 -320 0
v -288 -320 0
v -320 -352 0
v -352 -352 0
v -352 -320 0
v -320 -320 0
v -352 -352 0
v -384 -352 0
v -384 -320 0
v -352 -320 0
v -480 -352 0
v -512 -352 0
v -512 -320 0
v -480 -320 0
v -256 -384 0
v -288 -384 0
v -288 -352 0
v -256 -352 0
v -480 -384 0
v -512 -384 0
v -512 -352 0
v -480 -352 0
v -256 -416 0
v -288 -416 0
v -288 -384 0
v -256 -384 0
v -480 -416 0
v -512 -416 0
v -512 -384 0
v -480 -384 0
v -256 -448 0
v -288 -448 0
v -288 -416 0
v -256 -416 0
v -480 -448 0
v -512 -448 0
v -512 -416 0
v -480 -416 0
v -256 -480 0
v -288 -480 0
v -288 -448 0
v -256 -448 0
v -288 -480 0
v -320 -480 0
v -320 -448 0
v -288 -448 0
v -320 -480 0
v -352 -480 0
v -352 -448 0
v -320 -448 0
v -352 -480 0
v -384 -480 0
v -384 -448 0
v -352 -448 0
v -384 -480 0
v -416 -480 0
v -416 -448 0
v -384 -448 0
v -416 -480 0
v -448 -480 0
v -448 -448 0
v -416 -448 0
v -448 -480 0
v -480 -480 0
v -480 -448 0
v -448 -448 0
v -480 -480 0
v -512 -480 0
v -512 -448 0
v -480 -448 0

# Texture cooridinates (Count = 17)
vt 0.5 0.25
vt 0.5625 0.25
vt 0.5625 0.3125
vt 0.5 0.3125
vt 0.625 0.25
vt 0.6875 0.25
vt 0.6875 0.3125
vt 0.625 0.3125
vt 0.75 0.1875
vt 0.8125 0.1875
vt 0.8125 0.25
vt 0.75 0.25
vt 0.5625 0.1875
vt 0.625 0.1875
vt 0.6875 0.1875
vt 0.8125 0.3125
vt 0.75 0.3125

# Normal
vn 0 0 -1

# Mesh description
g floor15_mesh_0007

# Faces
f 1/1/1 2/2/1 3/3/1 4/4/1
f 5/1/1 6/2/1 7/3/1 8/4/1
f 9/1/1 10/2/1 11/3/1 12/4/1
f 13/1/1 14/2/1 15/3/1 16/4/1
f 17/5/1 18/6/1 19/7/1 20/8/1
f 21/1/1 22/2/1 23/3/1 24/4/1
f 25/9/1 26/10/1 27/11/1 28/12/1
f 29/13/1 30/14/1 31/5/1 32/2/1
f 33/13/1 34/14/1 35/5/1 36/2/1
f 37/13/1 38/14/1 39/5/1 40/2/1
f 41/15/1 42/9/1 43/12/1 44/6/1
f 45/5/1 46/6/1 47/7/1 48/8/1
f 49/1/1 50/2/1 51/3/1 52/4/1
f 53/5/1 54/6/1 55/7/1 56/8/1
f 57/1/1 58/2/1 59/3/1 60/4/1
f 61/9/1 62/10/1 63/11/1 64/12/1
f 65/13/1 66/14/1 67/5/1 68/2/1
f 69/13/1 70/14/1 71/5/1 72/2/1
f 73/14/1 74/15/1 75/6/1 76/5/1
f 77/1/1 78/2/1 79/3/1 80/4/1
f 81/5/1 82/6/1 83/7/1 84/8/1
f 85/1/1 86/2/1 87/3/1 88/4/1
f 89/5/1 90/6/1 91/7/1 92/8/1
f 93/1/1 94/2/1 95/3/1 96/4/1
f 97/5/1 98/6/1 99/7/1 100/8/1
f 101/1/1 102/2/1 103/3/1 104/4/1
f 105/12/1 106/11/1 107/16/1 108/17/1
f 109/13/1 110/14/1 111/5/1 112/2/1
f 113/13/1 114/14/1 115/5/1 116/2/1
f 117/13/1 118/14/1 119/5/1 120/2/1
f 121/13/1 122/14/1 123/5/1 124/2/1
f 125/13/1 126/14/1 127/5/1 128/2/1
f 129/13/1 130/14/1 131/5/1 132/2/1
f 133/6/1 134/12/1 135/17/1 136/7/1

