# Tiled2Unity generated file. Do not modify by hand.
# Wavefront file for 'floor3_mesh_0011.obj'

# Vertices (Count = 36)
v -224 -192 0
v -256 -192 0
v -256 -160 0
v -224 -160 0
v -224 -224 0
v -256 -224 0
v -256 -192 0
v -224 -192 0
v -224 -320 0
v -256 -320 0
v -256 -288 0
v -224 -288 0
v -96 -384 0
v -128 -384 0
v -128 -352 0
v -96 -352 0
v -256 -416 0
v -288 -416 0
v -288 -384 0
v -256 -384 0
v -320 -416 0
v -352 -416 0
v -352 -384 0
v -320 -384 0
v -352 -416 0
v -384 -416 0
v -384 -384 0
v -352 -384 0
v -384 -416 0
v -416 -416 0
v -416 -384 0
v -384 -384 0
v -416 -416 0
v -448 -416 0
v -448 -384 0
v -416 -384 0

# Texture cooridinates (Count = 26)
vt 0.5 0.3125
vt 0.5625 0.3125
vt 0.5625 0.375
vt 0.5 0.375
vt 0.5 0.25
vt 0.5625 0.25
vt 0.1875 0.875
vt 0.25 0.875
vt 0.25 0.9375
vt 0.1875 0.9375
vt 0.125 0.75
vt 0.1875 0.75
vt 0.1875 0.8125
vt 0.125 0.8125
vt 0.25 0.75
vt 0.3125 0.75
vt 0.3125 0.8125
vt 0.25 0.8125
vt 0.375 0.3125
vt 0.4375 0.3125
vt 0.4375 0.375
vt 0.375 0.375
vt 0.25 0.3125
vt 0.3125 0.3125
vt 0.3125 0.375
vt 0.25 0.375

# Normal
vn 0 0 -1

# Mesh description
g floor3_mesh_0011

# Faces
f 1/1/1 2/2/1 3/3/1 4/4/1
f 5/5/1 6/6/1 7/2/1 8/1/1
f 9/7/1 10/8/1 11/9/1 12/10/1
f 13/11/1 14/12/1 15/13/1 16/14/1
f 17/15/1 18/16/1 19/17/1 20/18/1
f 21/19/1 22/20/1 23/21/1 24/22/1
f 25/23/1 26/24/1 27/25/1 28/26/1
f 29/23/1 30/24/1 31/25/1 32/26/1
f 33/19/1 34/20/1 35/21/1 36/22/1

