# Tiled2Unity generated file. Do not modify by hand.
# Wavefront file for 'floor12_mesh_0012.obj'

# Vertices (Count = 40)
v -32 -352 0
v -64 -352 0
v -64 -320 0
v -32 -320 0
v -64 -352 0
v -96 -352 0
v -96 -320 0
v -64 -320 0
v -96 -352 0
v -128 -352 0
v -128 -320 0
v -96 -320 0
v -128 -352 0
v -160 -352 0
v -160 -320 0
v -128 -320 0
v -160 -352 0
v -192 -352 0
v -192 -320 0
v -160 -320 0
v -32 -384 0
v -64 -384 0
v -64 -352 0
v -32 -352 0
v -64 -384 0
v -96 -384 0
v -96 -352 0
v -64 -352 0
v -96 -384 0
v -128 -384 0
v -128 -352 0
v -96 -352 0
v -128 -384 0
v -160 -384 0
v -160 -352 0
v -128 -352 0
v -160 -384 0
v -192 -384 0
v -192 -352 0
v -160 -352 0

# Texture cooridinates (Count = 21)
vt 0 0.4375
vt 0.0625 0.4375
vt 0.0625 0.5
vt 0 0.5
vt 0.125 0.4375
vt 0.125 0.5
vt 0.3125 0.4375
vt 0.375 0.4375
vt 0.375 0.5
vt 0.3125 0.5
vt 0.1875 0.4375
vt 0.1875 0.5
vt 0.25 0.4375
vt 0.25 0.5
vt 0 0.375
vt 0.0625 0.375
vt 0.125 0.375
vt 0.3125 0.375
vt 0.375 0.375
vt 0.1875 0.375
vt 0.25 0.375

# Normal
vn 0 0 -1

# Mesh description
g floor12_mesh_0012

# Faces
f 1/1/1 2/2/1 3/3/1 4/4/1
f 5/2/1 6/5/1 7/6/1 8/3/1
f 9/7/1 10/8/1 11/9/1 12/10/1
f 13/5/1 14/11/1 15/12/1 16/6/1
f 17/11/1 18/13/1 19/14/1 20/12/1
f 21/15/1 22/16/1 23/2/1 24/1/1
f 25/16/1 26/17/1 27/5/1 28/2/1
f 29/18/1 30/19/1 31/8/1 32/7/1
f 33/17/1 34/20/1 35/11/1 36/5/1
f 37/20/1 38/21/1 39/13/1 40/11/1

