# Tiled2Unity generated file. Do not modify by hand.
# Wavefront file for 'floor5_mesh_0010.obj'

# Vertices (Count = 12)
v -320 -128 0
v -352 -128 0
v -352 -96 0
v -320 -96 0
v -352 -160 0
v -384 -160 0
v -384 -128 0
v -352 -128 0
v -160 -320 0
v -192 -320 0
v -192 -288 0
v -160 -288 0

# Texture cooridinates (Count = 4)
vt 0.5 0.8125
vt 0.5625 0.8125
vt 0.5625 0.875
vt 0.5 0.875

# Normal
vn 0 0 -1

# Mesh description
g floor5_mesh_0010

# Faces
f 1/1/1 2/2/1 3/3/1 4/4/1
f 5/1/1 6/2/1 7/3/1 8/4/1
f 9/1/1 10/2/1 11/3/1 12/4/1

