# Tiled2Unity generated file. Do not modify by hand.
# Wavefront file for 'floor18_mesh_0010.obj'

# Vertices (Count = 32)
v -448 -224 0
v -480 -224 0
v -480 -192 0
v -448 -192 0
v -448 -288 0
v -480 -288 0
v -480 -256 0
v -448 -256 0
v -64 -448 0
v -96 -448 0
v -96 -416 0
v -64 -416 0
v -128 -448 0
v -160 -448 0
v -160 -416 0
v -128 -416 0
v -192 -448 0
v -224 -448 0
v -224 -416 0
v -192 -416 0
v -256 -448 0
v -288 -448 0
v -288 -416 0
v -256 -416 0
v -320 -448 0
v -352 -448 0
v -352 -416 0
v -320 -416 0
v -384 -448 0
v -416 -448 0
v -416 -416 0
v -384 -416 0

# Texture cooridinates (Count = 22)
vt 0.875 0.5625
vt 0.9375 0.5625
vt 0.9375 0.625
vt 0.875 0.625
vt 0.5 0.8125
vt 0.5625 0.8125
vt 0.5625 0.875
vt 0.5 0.875
vt 0.5 0.6875
vt 0.5625 0.6875
vt 0.5625 0.75
vt 0.5 0.75
vt 0.625 0.6875
vt 0.625 0.75
vt 0.6875 0.6875
vt 0.6875 0.75
vt 0.75 0.6875
vt 0.75 0.75
vt 0.8125 0.6875
vt 0.8125 0.75
vt 0.875 0.6875
vt 0.875 0.75

# Normal
vn 0 0 -1

# Mesh description
g floor18_mesh_0010

# Faces
f 1/1/1 2/2/1 3/3/1 4/4/1
f 5/5/1 6/6/1 7/7/1 8/8/1
f 9/9/1 10/10/1 11/11/1 12/12/1
f 13/10/1 14/13/1 15/14/1 16/11/1
f 17/13/1 18/15/1 19/16/1 20/14/1
f 21/15/1 22/17/1 23/18/1 24/16/1
f 25/17/1 26/19/1 27/20/1 28/18/1
f 29/19/1 30/21/1 31/22/1 32/20/1

