# Tiled2Unity generated file. Do not modify by hand.
# Wavefront file for 'floor4_mesh_0005.obj'

# Vertices (Count = 16)
v -192 -384 0
v -224 -384 0
v -224 -352 0
v -192 -352 0
v -224 -384 0
v -256 -384 0
v -256 -352 0
v -224 -352 0
v -192 -416 0
v -224 -416 0
v -224 -384 0
v -192 -384 0
v -224 -416 0
v -256 -416 0
v -256 -384 0
v -224 -384 0

# Texture cooridinates (Count = 4)
vt 0.625 0.9375
vt 0.625 0.875
vt 0.75 0.875
vt 0.75 0.9375

# Normal
vn 0 0 -1

# Mesh description
g floor4_mesh_0005

# Faces
f 1/1/1 2/2/1 3/3/1 4/4/1
f 5/1/1 6/2/1 7/3/1 8/4/1
f 9/1/1 10/2/1 11/3/1 12/4/1
f 13/1/1 14/2/1 15/3/1 16/4/1

