# Tiled2Unity generated file. Do not modify by hand.
# Wavefront file for 'Floor0_mesh_0009.obj'

# Vertices (Count = 16)
v -192 -32 0
v -224 -32 0
v -224 0 0
v -192 0 0
v -288 -32 0
v -320 -32 0
v -320 0 0
v -288 0 0
v -192 -64 0
v -224 -64 0
v -224 -32 0
v -192 -32 0
v -288 -64 0
v -320 -64 0
v -320 -32 0
v -288 -32 0

# Texture cooridinates (Count = 6)
vt 0.1875 0.3125
vt 0.25 0.3125
vt 0.25 0.375
vt 0.1875 0.375
vt 0.1875 0.25
vt 0.25 0.25

# Normal
vn 0 0 -1

# Mesh description
g Floor0_mesh_0009

# Faces
f 1/1/1 2/2/1 3/3/1 4/4/1
f 5/1/1 6/2/1 7/3/1 8/4/1
f 9/5/1 10/6/1 11/2/1 12/1/1
f 13/5/1 14/6/1 15/2/1 16/1/1

