# Tiled2Unity generated file. Do not modify by hand.
# Wavefront file for 'Floor0_mesh_0004.obj'

# Vertices (Count = 96)
v -224 -352 0
v -256 -352 0
v -256 -320 0
v -224 -320 0
v -256 -352 0
v -288 -352 0
v -288 -320 0
v -256 -320 0
v -32 -384 0
v -64 -384 0
v -64 -352 0
v -32 -352 0
v -64 -384 0
v -96 -384 0
v -96 -352 0
v -64 -352 0
v -128 -384 0
v -160 -384 0
v -160 -352 0
v -128 -352 0
v -320 -384 0
v -352 -384 0
v -352 -352 0
v -320 -352 0
v -352 -384 0
v -384 -384 0
v -384 -352 0
v -352 -352 0
v -416 -384 0
v -448 -384 0
v -448 -352 0
v -416 -352 0
v -480 -384 0
v -512 -384 0
v -512 -352 0
v -480 -352 0
v -32 -416 0
v -64 -416 0
v -64 -384 0
v -32 -384 0
v -64 -416 0
v -96 -416 0
v -96 -384 0
v -64 -384 0
v -320 -416 0
v -352 -416 0
v -352 -384 0
v -320 -384 0
v -352 -416 0
v -384 -416 0
v -384 -384 0
v -352 -384 0
v -128 -448 0
v -160 -448 0
v -160 -416 0
v -128 -416 0
v -160 -448 0
v -192 -448 0
v -192 -416 0
v -160 -416 0
v -352 -448 0
v -384 -448 0
v -384 -416 0
v -352 -416 0
v -448 -448 0
v -480 -448 0
v -480 -416 0
v -448 -416 0
v -480 -448 0
v -512 -448 0
v -512 -416 0
v -480 -416 0
v -32 -480 0
v -64 -480 0
v -64 -448 0
v -32 -448 0
v -128 -480 0
v -160 -480 0
v -160 -448 0
v -128 -448 0
v -160 -480 0
v -192 -480 0
v -192 -448 0
v -160 -448 0
v -448 -480 0
v -480 -480 0
v -480 -448 0
v -448 -448 0
v -480 -480 0
v -512 -480 0
v -512 -448 0
v -480 -448 0
v -320 -512 0
v -352 -512 0
v -352 -480 0
v -320 -480 0

# Texture cooridinates (Count = 18)
vt 0 0.5833334
vt 0.0625 0.5833334
vt 0.0625 0.6666666
vt 0 0.6666666
vt 0.125 0.8333333
vt 0.1875 0.8333333
vt 0.1875 0.9166667
vt 0.125 0.9166667
vt 0.25 0.8333333
vt 0.25 0.9166667
vt 0.0625 0.8333333
vt 0.0625 0.9166667
vt 0.1875 1
vt 0.125 1
vt 0.125 0.75
vt 0.1875 0.75
vt 0.25 0.75
vt 0.25 1

# Normal
vn 0 0 -1

# Mesh description
g Floor0_mesh_0004

# Faces
f 1/1/1 2/2/1 3/3/1 4/4/1
f 5/1/1 6/2/1 7/3/1 8/4/1
f 9/5/1 10/6/1 11/7/1 12/8/1
f 13/6/1 14/9/1 15/10/1 16/7/1
f 17/11/1 18/5/1 19/8/1 20/12/1
f 21/5/1 22/6/1 23/7/1 24/8/1
f 25/6/1 26/9/1 27/10/1 28/7/1
f 29/8/1 30/7/1 31/13/1 32/14/1
f 33/11/1 34/5/1 35/8/1 36/12/1
f 37/15/1 38/16/1 39/6/1 40/5/1
f 41/16/1 42/17/1 43/9/1 44/6/1
f 45/15/1 46/16/1 47/6/1 48/5/1
f 49/16/1 50/17/1 51/9/1 52/6/1
f 53/5/1 54/6/1 55/7/1 56/8/1
f 57/6/1 58/9/1 59/10/1 60/7/1
f 61/11/1 62/5/1 63/8/1 64/12/1
f 65/5/1 66/6/1 67/7/1 68/8/1
f 69/6/1 70/9/1 71/10/1 72/7/1
f 73/8/1 74/7/1 75/13/1 76/14/1
f 77/15/1 78/16/1 79/6/1 80/5/1
f 81/16/1 82/17/1 83/9/1 84/6/1
f 85/15/1 86/16/1 87/6/1 88/5/1
f 89/16/1 90/17/1 91/9/1 92/6/1
f 93/7/1 94/10/1 95/18/1 96/13/1

