# Tiled2Unity generated file. Do not modify by hand.
# Wavefront file for 'Floor0_mesh_0006.obj'

# Vertices (Count = 152)
v -192 -160 0
v -224 -160 0
v -224 -128 0
v -192 -128 0
v -224 -160 0
v -256 -160 0
v -256 -128 0
v -224 -128 0
v -256 -160 0
v -288 -160 0
v -288 -128 0
v -256 -128 0
v -288 -160 0
v -320 -160 0
v -320 -128 0
v -288 -128 0
v -192 -192 0
v -224 -192 0
v -224 -160 0
v -192 -160 0
v -288 -192 0
v -320 -192 0
v -320 -160 0
v -288 -160 0
v -192 -224 0
v -224 -224 0
v -224 -192 0
v -192 -192 0
v -288 -224 0
v -320 -224 0
v -320 -192 0
v -288 -192 0
v -192 -256 0
v -224 -256 0
v -224 -224 0
v -192 -224 0
v -288 -256 0
v -320 -256 0
v -320 -224 0
v -288 -224 0
v 0 -288 0
v -32 -288 0
v -32 -256 0
v 0 -256 0
v -32 -288 0
v -64 -288 0
v -64 -256 0
v -32 -256 0
v -64 -288 0
v -96 -288 0
v -96 -256 0
v -64 -256 0
v -96 -288 0
v -128 -288 0
v -128 -256 0
v -96 -256 0
v -128 -288 0
v -160 -288 0
v -160 -256 0
v -128 -256 0
v -160 -288 0
v -192 -288 0
v -192 -256 0
v -160 -256 0
v -192 -288 0
v -224 -288 0
v -224 -256 0
v -192 -256 0
v -288 -288 0
v -320 -288 0
v -320 -256 0
v -288 -256 0
v -320 -288 0
v -352 -288 0
v -352 -256 0
v -320 -256 0
v -352 -288 0
v -384 -288 0
v -384 -256 0
v -352 -256 0
v -384 -288 0
v -416 -288 0
v -416 -256 0
v -384 -256 0
v -416 -288 0
v -448 -288 0
v -448 -256 0
v -416 -256 0
v -448 -288 0
v -480 -288 0
v -480 -256 0
v -448 -256 0
v -480 -288 0
v -512 -288 0
v -512 -256 0
v -480 -256 0
v 0 -320 0
v -32 -320 0
v -32 -288 0
v 0 -288 0
v -32 -320 0
v -64 -320 0
v -64 -288 0
v -32 -288 0
v -64 -320 0
v -96 -320 0
v -96 -288 0
v -64 -288 0
v -96 -320 0
v -128 -320 0
v -128 -288 0
v -96 -288 0
v -128 -320 0
v -160 -320 0
v -160 -288 0
v -128 -288 0
v -160 -320 0
v -192 -320 0
v -192 -288 0
v -160 -288 0
v -192 -320 0
v -224 -320 0
v -224 -288 0
v -192 -288 0
v -288 -320 0
v -320 -320 0
v -320 -288 0
v -288 -288 0
v -320 -320 0
v -352 -320 0
v -352 -288 0
v -320 -288 0
v -352 -320 0
v -384 -320 0
v -384 -288 0
v -352 -288 0
v -384 -320 0
v -416 -320 0
v -416 -288 0
v -384 -288 0
v -416 -320 0
v -448 -320 0
v -448 -288 0
v -416 -288 0
v -448 -320 0
v -480 -320 0
v -480 -288 0
v -448 -288 0
v -480 -320 0
v -512 -320 0
v -512 -288 0
v -480 -288 0

# Texture cooridinates (Count = 20)
vt 0.75 0.1875
vt 0.875 0.1875
vt 0.875 0.25
vt 0.75 0.25
vt 1 0.1875
vt 1 0.25
vt 0.625 0.1875
vt 0.625 0.25
vt 0.875 0.125
vt 1 0.125
vt 0.625 0.125
vt 0.75 0.125
vt 0.625 0.0625
vt 0.75 0.0625
vt 0.875 0.0625
vt 1 0.0625
vt 0.625 0
vt 0.75 0
vt 0.875 0
vt 1 0

# Normal
vn 0 0 -1

# Mesh description
g Floor0_mesh_0006

# Faces
f 1/1/1 2/2/1 3/3/1 4/4/1
f 5/1/1 6/2/1 7/3/1 8/4/1
f 9/1/1 10/2/1 11/3/1 12/4/1
f 13/1/1 14/2/1 15/3/1 16/4/1
f 17/2/1 18/5/1 19/6/1 20/3/1
f 21/7/1 22/1/1 23/4/1 24/8/1
f 25/2/1 26/5/1 27/6/1 28/3/1
f 29/7/1 30/1/1 31/4/1 32/8/1
f 33/9/1 34/10/1 35/5/1 36/2/1
f 37/11/1 38/12/1 39/1/1 40/7/1
f 41/13/1 42/14/1 43/12/1 44/11/1
f 45/14/1 46/15/1 47/9/1 48/12/1
f 49/14/1 50/15/1 51/9/1 52/12/1
f 53/14/1 54/15/1 55/9/1 56/12/1
f 57/14/1 58/15/1 59/9/1 60/12/1
f 61/14/1 62/15/1 63/9/1 64/12/1
f 65/15/1 66/16/1 67/10/1 68/9/1
f 69/13/1 70/14/1 71/12/1 72/11/1
f 73/14/1 74/15/1 75/9/1 76/12/1
f 77/14/1 78/15/1 79/9/1 80/12/1
f 81/14/1 82/15/1 83/9/1 84/12/1
f 85/14/1 86/15/1 87/9/1 88/12/1
f 89/14/1 90/15/1 91/9/1 92/12/1
f 93/14/1 94/15/1 95/9/1 96/12/1
f 97/17/1 98/18/1 99/14/1 100/13/1
f 101/18/1 102/19/1 103/15/1 104/14/1
f 105/18/1 106/19/1 107/15/1 108/14/1
f 109/18/1 110/19/1 111/15/1 112/14/1
f 113/18/1 114/19/1 115/15/1 116/14/1
f 117/18/1 118/19/1 119/15/1 120/14/1
f 121/19/1 122/20/1 123/16/1 124/15/1
f 125/17/1 126/18/1 127/14/1 128/13/1
f 129/18/1 130/19/1 131/15/1 132/14/1
f 133/18/1 134/19/1 135/15/1 136/14/1
f 137/18/1 138/19/1 139/15/1 140/14/1
f 141/18/1 142/19/1 143/15/1 144/14/1
f 145/18/1 146/19/1 147/15/1 148/14/1
f 149/18/1 150/19/1 151/15/1 152/14/1

