# Tiled2Unity generated file. Do not modify by hand.
# Wavefront file for 'floor14_mesh_0004.obj'

# Vertices (Count = 392)
v 0 -64 0
v -32 -64 0
v -32 -32 0
v 0 -32 0
v -32 -64 0
v -64 -64 0
v -64 -32 0
v -32 -32 0
v -64 -64 0
v -96 -64 0
v -96 -32 0
v -64 -32 0
v -96 -64 0
v -128 -64 0
v -128 -32 0
v -96 -32 0
v -128 -64 0
v -160 -64 0
v -160 -32 0
v -128 -32 0
v -160 -64 0
v -192 -64 0
v -192 -32 0
v -160 -32 0
v -192 -64 0
v -224 -64 0
v -224 -32 0
v -192 -32 0
v -224 -64 0
v -256 -64 0
v -256 -32 0
v -224 -32 0
v -256 -64 0
v -288 -64 0
v -288 -32 0
v -256 -32 0
v -288 -64 0
v -320 -64 0
v -320 -32 0
v -288 -32 0
v -320 -64 0
v -352 -64 0
v -352 -32 0
v -320 -32 0
v -352 -64 0
v -384 -64 0
v -384 -32 0
v -352 -32 0
v -384 -64 0
v -416 -64 0
v -416 -32 0
v -384 -32 0
v -416 -64 0
v -448 -64 0
v -448 -32 0
v -416 -32 0
v -448 -64 0
v -480 -64 0
v -480 -32 0
v -448 -32 0
v -480 -64 0
v -512 -64 0
v -512 -32 0
v -480 -32 0
v 0 -96 0
v -32 -96 0
v -32 -64 0
v 0 -64 0
v -480 -96 0
v -512 -96 0
v -512 -64 0
v -480 -64 0
v 0 -128 0
v -32 -128 0
v -32 -96 0
v 0 -96 0
v -288 -128 0
v -320 -128 0
v -320 -96 0
v -288 -96 0
v -320 -128 0
v -352 -128 0
v -352 -96 0
v -320 -96 0
v -352 -128 0
v -384 -128 0
v -384 -96 0
v -352 -96 0
v -480 -128 0
v -512 -128 0
v -512 -96 0
v -480 -96 0
v 0 -160 0
v -32 -160 0
v -32 -128 0
v 0 -128 0
v -288 -160 0
v -320 -160 0
v -320 -128 0
v -288 -128 0
v -480 -160 0
v -512 -160 0
v -512 -128 0
v -480 -128 0
v 0 -192 0
v -32 -192 0
v -32 -160 0
v 0 -160 0
v -160 -192 0
v -192 -192 0
v -192 -160 0
v -160 -160 0
v -192 -192 0
v -224 -192 0
v -224 -160 0
v -192 -160 0
v -224 -192 0
v -256 -192 0
v -256 -160 0
v -224 -160 0
v -256 -192 0
v -288 -192 0
v -288 -160 0
v -256 -160 0
v -288 -192 0
v -320 -192 0
v -320 -160 0
v -288 -160 0
v -480 -192 0
v -512 -192 0
v -512 -160 0
v -480 -160 0
v 0 -224 0
v -32 -224 0
v -32 -192 0
v 0 -192 0
v -288 -224 0
v -320 -224 0
v -320 -192 0
v -288 -192 0
v -384 -224 0
v -416 -224 0
v -416 -192 0
v -384 -192 0
v -416 -224 0
v -448 -224 0
v -448 -192 0
v -416 -192 0
v -448 -224 0
v -480 -224 0
v -480 -192 0
v -448 -192 0
v -480 -224 0
v -512 -224 0
v -512 -192 0
v -480 -192 0
v 0 -256 0
v -32 -256 0
v -32 -224 0
v 0 -224 0
v -32 -256 0
v -64 -256 0
v -64 -224 0
v -32 -224 0
v -64 -256 0
v -96 -256 0
v -96 -224 0
v -64 -224 0
v -96 -256 0
v -128 -256 0
v -128 -224 0
v -96 -224 0
v -128 -256 0
v -160 -256 0
v -160 -224 0
v -128 -224 0
v -160 -256 0
v -192 -256 0
v -192 -224 0
v -160 -224 0
v -192 -256 0
v -224 -256 0
v -224 -224 0
v -192 -224 0
v -224 -256 0
v -256 -256 0
v -256 -224 0
v -224 -224 0
v -256 -256 0
v -288 -256 0
v -288 -224 0
v -256 -224 0
v -288 -256 0
v -320 -256 0
v -320 -224 0
v -288 -224 0
v -384 -256 0
v -416 -256 0
v -416 -224 0
v -384 -224 0
v -480 -256 0
v -512 -256 0
v -512 -224 0
v -480 -224 0
v 0 -288 0
v -32 -288 0
v -32 -256 0
v 0 -256 0
v -288 -288 0
v -320 -288 0
v -320 -256 0
v -288 -256 0
v -384 -288 0
v -416 -288 0
v -416 -256 0
v -384 -256 0
v -480 -288 0
v -512 -288 0
v -512 -256 0
v -480 -256 0
v 0 -320 0
v -32 -320 0
v -32 -288 0
v 0 -288 0
v -32 -320 0
v -64 -320 0
v -64 -288 0
v -32 -288 0
v -64 -320 0
v -96 -320 0
v -96 -288 0
v -64 -288 0
v -96 -320 0
v -128 -320 0
v -128 -288 0
v -96 -288 0
v -128 -320 0
v -160 -320 0
v -160 -288 0
v -128 -288 0
v -160 -320 0
v -192 -320 0
v -192 -288 0
v -160 -288 0
v -288 -320 0
v -320 -320 0
v -320 -288 0
v -288 -288 0
v -384 -320 0
v -416 -320 0
v -416 -288 0
v -384 -288 0
v -480 -320 0
v -512 -320 0
v -512 -288 0
v -480 -288 0
v 0 -352 0
v -32 -352 0
v -32 -320 0
v 0 -320 0
v -288 -352 0
v -320 -352 0
v -320 -320 0
v -288 -320 0
v -384 -352 0
v -416 -352 0
v -416 -320 0
v -384 -320 0
v -480 -352 0
v -512 -352 0
v -512 -320 0
v -480 -320 0
v 0 -384 0
v -32 -384 0
v -32 -352 0
v 0 -352 0
v -160 -384 0
v -192 -384 0
v -192 -352 0
v -160 -352 0
v -288 -384 0
v -320 -384 0
v -320 -352 0
v -288 -352 0
v -480 -384 0
v -512 -384 0
v -512 -352 0
v -480 -352 0
v 0 -416 0
v -32 -416 0
v -32 -384 0
v 0 -384 0
v -160 -416 0
v -192 -416 0
v -192 -384 0
v -160 -384 0
v -288 -416 0
v -320 -416 0
v -320 -384 0
v -288 -384 0
v -384 -416 0
v -416 -416 0
v -416 -384 0
v -384 -384 0
v -480 -416 0
v -512 -416 0
v -512 -384 0
v -480 -384 0
v 0 -448 0
v -32 -448 0
v -32 -416 0
v 0 -416 0
v -160 -448 0
v -192 -448 0
v -192 -416 0
v -160 -416 0
v -288 -448 0
v -320 -448 0
v -320 -416 0
v -288 -416 0
v -384 -448 0
v -416 -448 0
v -416 -416 0
v -384 -416 0
v -480 -448 0
v -512 -448 0
v -512 -416 0
v -480 -416 0
v 0 -480 0
v -32 -480 0
v -32 -448 0
v 0 -448 0
v -32 -480 0
v -64 -480 0
v -64 -448 0
v -32 -448 0
v -64 -480 0
v -96 -480 0
v -96 -448 0
v -64 -448 0
v -96 -480 0
v -128 -480 0
v -128 -448 0
v -96 -448 0
v -128 -480 0
v -160 -480 0
v -160 -448 0
v -128 -448 0
v -160 -480 0
v -192 -480 0
v -192 -448 0
v -160 -448 0
v -192 -480 0
v -224 -480 0
v -224 -448 0
v -192 -448 0
v -224 -480 0
v -256 -480 0
v -256 -448 0
v -224 -448 0
v -256 -480 0
v -288 -480 0
v -288 -448 0
v -256 -448 0
v -288 -480 0
v -320 -480 0
v -320 -448 0
v -288 -448 0
v -320 -480 0
v -352 -480 0
v -352 -448 0
v -320 -448 0
v -352 -480 0
v -384 -480 0
v -384 -448 0
v -352 -448 0
v -384 -480 0
v -416 -480 0
v -416 -448 0
v -384 -448 0
v -416 -480 0
v -448 -480 0
v -448 -448 0
v -416 -448 0
v -448 -480 0
v -480 -480 0
v -480 -448 0
v -448 -448 0
v -480 -480 0
v -512 -480 0
v -512 -448 0
v -480 -448 0

# Texture cooridinates (Count = 26)
vt 0.75 0.1875
vt 0.8125 0.1875
vt 0.8125 0.25
vt 0.75 0.25
vt 0.5625 0.1875
vt 0.625 0.1875
vt 0.625 0.25
vt 0.5625 0.25
vt 0.6875 0.1875
vt 0.6875 0.25
vt 0.6875 0.3125
vt 0.625 0.3125
vt 0.5 0.25
vt 0.5625 0.3125
vt 0.5 0.3125
vt 0.5625 0.375
vt 0.5 0.375
vt 0.6875 0.375
vt 0.75 0.375
vt 0.75 0.4375
vt 0.6875 0.4375
vt 0.75 0.3125
vt 0.625 0.375
vt 0.8125 0.375
vt 0.8125 0.4375
vt 0.8125 0.3125

# Normal
vn 0 0 -1

# Mesh description
g floor14_mesh_0004

# Faces
f 1/1/1 2/2/1 3/3/1 4/4/1
f 5/5/1 6/6/1 7/7/1 8/8/1
f 9/5/1 10/6/1 11/7/1 12/8/1
f 13/5/1 14/6/1 15/7/1 16/8/1
f 17/5/1 18/6/1 19/7/1 20/8/1
f 21/5/1 22/6/1 23/7/1 24/8/1
f 25/5/1 26/6/1 27/7/1 28/8/1
f 29/5/1 30/6/1 31/7/1 32/8/1
f 33/5/1 34/6/1 35/7/1 36/8/1
f 37/5/1 38/6/1 39/7/1 40/8/1
f 41/5/1 42/6/1 43/7/1 44/8/1
f 45/5/1 46/6/1 47/7/1 48/8/1
f 49/5/1 50/6/1 51/7/1 52/8/1
f 53/5/1 54/6/1 55/7/1 56/8/1
f 57/5/1 58/6/1 59/7/1 60/8/1
f 61/9/1 62/1/1 63/4/1 64/10/1
f 65/7/1 66/10/1 67/11/1 68/12/1
f 69/13/1 70/8/1 71/14/1 72/15/1
f 73/7/1 74/10/1 75/11/1 76/12/1
f 77/15/1 78/14/1 79/16/1 80/17/1
f 81/5/1 82/6/1 83/7/1 84/8/1
f 85/18/1 86/19/1 87/20/1 88/21/1
f 89/13/1 90/8/1 91/14/1 92/15/1
f 93/7/1 94/10/1 95/11/1 96/12/1
f 97/13/1 98/8/1 99/14/1 100/15/1
f 101/13/1 102/8/1 103/14/1 104/15/1
f 105/7/1 106/10/1 107/11/1 108/12/1
f 109/11/1 110/22/1 111/19/1 112/18/1
f 113/5/1 114/6/1 115/7/1 116/8/1
f 117/5/1 118/6/1 119/7/1 120/8/1
f 121/5/1 122/6/1 123/7/1 124/8/1
f 125/13/1 126/8/1 127/14/1 128/15/1
f 129/13/1 130/8/1 131/14/1 132/15/1
f 133/7/1 134/10/1 135/11/1 136/12/1
f 137/13/1 138/8/1 139/14/1 140/15/1
f 141/15/1 142/14/1 143/16/1 144/17/1
f 145/5/1 146/6/1 147/7/1 148/8/1
f 149/5/1 150/6/1 151/7/1 152/8/1
f 153/13/1 154/8/1 155/14/1 156/15/1
f 157/7/1 158/10/1 159/11/1 160/12/1
f 161/5/1 162/6/1 163/7/1 164/8/1
f 165/5/1 166/6/1 167/7/1 168/8/1
f 169/5/1 170/6/1 171/7/1 172/8/1
f 173/5/1 174/6/1 175/7/1 176/8/1
f 177/5/1 178/6/1 179/7/1 180/8/1
f 181/5/1 182/6/1 183/7/1 184/8/1
f 185/5/1 186/6/1 187/7/1 188/8/1
f 189/5/1 190/6/1 191/7/1 192/8/1
f 193/12/1 194/11/1 195/18/1 196/23/1
f 197/13/1 198/8/1 199/14/1 200/15/1
f 201/13/1 202/8/1 203/14/1 204/15/1
f 205/7/1 206/10/1 207/11/1 208/12/1
f 209/7/1 210/10/1 211/11/1 212/12/1
f 213/13/1 214/8/1 215/14/1 216/15/1
f 217/13/1 218/8/1 219/14/1 220/15/1
f 221/7/1 222/10/1 223/11/1 224/12/1
f 225/5/1 226/6/1 227/7/1 228/8/1
f 229/5/1 230/6/1 231/7/1 232/8/1
f 233/5/1 234/6/1 235/7/1 236/8/1
f 237/5/1 238/6/1 239/7/1 240/8/1
f 241/9/1 242/1/1 243/4/1 244/10/1
f 245/7/1 246/10/1 247/11/1 248/12/1
f 249/13/1 250/8/1 251/14/1 252/15/1
f 253/13/1 254/8/1 255/14/1 256/15/1
f 257/7/1 258/10/1 259/11/1 260/12/1
f 261/7/1 262/10/1 263/11/1 264/12/1
f 265/19/1 266/24/1 267/25/1 268/20/1
f 269/13/1 270/8/1 271/14/1 272/15/1
f 273/7/1 274/10/1 275/11/1 276/12/1
f 277/22/1 278/26/1 279/24/1 280/19/1
f 281/7/1 282/10/1 283/11/1 284/12/1
f 285/13/1 286/8/1 287/14/1 288/15/1
f 289/7/1 290/10/1 291/11/1 292/12/1
f 293/13/1 294/8/1 295/14/1 296/15/1
f 297/7/1 298/10/1 299/11/1 300/12/1
f 301/22/1 302/26/1 303/24/1 304/19/1
f 305/13/1 306/8/1 307/14/1 308/15/1
f 309/7/1 310/10/1 311/11/1 312/12/1
f 313/13/1 314/8/1 315/14/1 316/15/1
f 317/7/1 318/10/1 319/11/1 320/12/1
f 321/13/1 322/8/1 323/14/1 324/15/1
f 325/13/1 326/8/1 327/14/1 328/15/1
f 329/4/1 330/3/1 331/26/1 332/22/1
f 333/5/1 334/6/1 335/7/1 336/8/1
f 337/5/1 338/6/1 339/7/1 340/8/1
f 341/5/1 342/6/1 343/7/1 344/8/1
f 345/5/1 346/6/1 347/7/1 348/8/1
f 349/5/1 350/6/1 351/7/1 352/8/1
f 353/5/1 354/6/1 355/7/1 356/8/1
f 357/5/1 358/6/1 359/7/1 360/8/1
f 361/5/1 362/6/1 363/7/1 364/8/1
f 365/5/1 366/6/1 367/7/1 368/8/1
f 369/5/1 370/6/1 371/7/1 372/8/1
f 373/5/1 374/6/1 375/7/1 376/8/1
f 377/5/1 378/6/1 379/7/1 380/8/1
f 381/5/1 382/6/1 383/7/1 384/8/1
f 385/5/1 386/6/1 387/7/1 388/8/1
f 389/10/1 390/4/1 391/22/1 392/11/1

