# Tiled2Unity generated file. Do not modify by hand.
# Wavefront file for 'floor1_mesh_0004.obj'

# Vertices (Count = 248)
v -32 -32 0
v -64 -32 0
v -64 0 0
v -32 0 0
v -64 -32 0
v -96 -32 0
v -96 0 0
v -64 0 0
v -96 -32 0
v -128 -32 0
v -128 0 0
v -96 0 0
v -128 -32 0
v -160 -32 0
v -160 0 0
v -128 0 0
v -160 -32 0
v -192 -32 0
v -192 0 0
v -160 0 0
v -192 -32 0
v -224 -32 0
v -224 0 0
v -192 0 0
v -224 -32 0
v -256 -32 0
v -256 0 0
v -224 0 0
v -256 -32 0
v -288 -32 0
v -288 0 0
v -256 0 0
v -288 -32 0
v -320 -32 0
v -320 0 0
v -288 0 0
v -320 -32 0
v -352 -32 0
v -352 0 0
v -320 0 0
v -352 -32 0
v -384 -32 0
v -384 0 0
v -352 0 0
v -384 -32 0
v -416 -32 0
v -416 0 0
v -384 0 0
v -416 -32 0
v -448 -32 0
v -448 0 0
v -416 0 0
v -448 -32 0
v -480 -32 0
v -480 0 0
v -448 0 0
v -32 -64 0
v -64 -64 0
v -64 -32 0
v -32 -32 0
v -448 -64 0
v -480 -64 0
v -480 -32 0
v -448 -32 0
v -32 -96 0
v -64 -96 0
v -64 -64 0
v -32 -64 0
v -448 -96 0
v -480 -96 0
v -480 -64 0
v -448 -64 0
v -32 -128 0
v -64 -128 0
v -64 -96 0
v -32 -96 0
v -448 -128 0
v -480 -128 0
v -480 -96 0
v -448 -96 0
v -32 -160 0
v -64 -160 0
v -64 -128 0
v -32 -128 0
v -64 -160 0
v -96 -160 0
v -96 -128 0
v -64 -128 0
v -96 -160 0
v -128 -160 0
v -128 -128 0
v -96 -128 0
v -128 -160 0
v -160 -160 0
v -160 -128 0
v -128 -128 0
v -352 -160 0
v -384 -160 0
v -384 -128 0
v -352 -128 0
v -384 -160 0
v -416 -160 0
v -416 -128 0
v -384 -128 0
v -416 -160 0
v -448 -160 0
v -448 -128 0
v -416 -128 0
v -448 -160 0
v -480 -160 0
v -480 -128 0
v -448 -128 0
v -128 -192 0
v -160 -192 0
v -160 -160 0
v -128 -160 0
v -352 -192 0
v -384 -192 0
v -384 -160 0
v -352 -160 0
v -128 -224 0
v -160 -224 0
v -160 -192 0
v -128 -192 0
v -352 -224 0
v -384 -224 0
v -384 -192 0
v -352 -192 0
v -128 -256 0
v -160 -256 0
v -160 -224 0
v -128 -224 0
v -352 -256 0
v -384 -256 0
v -384 -224 0
v -352 -224 0
v -64 -288 0
v -96 -288 0
v -96 -256 0
v -64 -256 0
v -96 -288 0
v -128 -288 0
v -128 -256 0
v -96 -256 0
v -128 -288 0
v -160 -288 0
v -160 -256 0
v -128 -256 0
v -352 -288 0
v -384 -288 0
v -384 -256 0
v -352 -256 0
v -384 -288 0
v -416 -288 0
v -416 -256 0
v -384 -256 0
v -416 -288 0
v -448 -288 0
v -448 -256 0
v -416 -256 0
v -64 -320 0
v -96 -320 0
v -96 -288 0
v -64 -288 0
v -416 -320 0
v -448 -320 0
v -448 -288 0
v -416 -288 0
v -64 -352 0
v -96 -352 0
v -96 -320 0
v -64 -320 0
v -416 -352 0
v -448 -352 0
v -448 -320 0
v -416 -320 0
v -64 -384 0
v -96 -384 0
v -96 -352 0
v -64 -352 0
v -416 -384 0
v -448 -384 0
v -448 -352 0
v -416 -352 0
v -64 -416 0
v -96 -416 0
v -96 -384 0
v -64 -384 0
v -96 -416 0
v -128 -416 0
v -128 -384 0
v -96 -384 0
v -384 -416 0
v -416 -416 0
v -416 -384 0
v -384 -384 0
v -416 -416 0
v -448 -416 0
v -448 -384 0
v -416 -384 0
v -96 -448 0
v -128 -448 0
v -128 -416 0
v -96 -416 0
v -384 -448 0
v -416 -448 0
v -416 -416 0
v -384 -416 0
v -96 -480 0
v -128 -480 0
v -128 -448 0
v -96 -448 0
v -384 -480 0
v -416 -480 0
v -416 -448 0
v -384 -448 0
v -96 -512 0
v -128 -512 0
v -128 -480 0
v -96 -480 0
v -128 -512 0
v -160 -512 0
v -160 -480 0
v -128 -480 0
v -160 -512 0
v -192 -512 0
v -192 -480 0
v -160 -480 0
v -192 -512 0
v -224 -512 0
v -224 -480 0
v -192 -480 0
v -288 -512 0
v -320 -512 0
v -320 -480 0
v -288 -480 0
v -320 -512 0
v -352 -512 0
v -352 -480 0
v -320 -480 0
v -352 -512 0
v -384 -512 0
v -384 -480 0
v -352 -480 0
v -384 -512 0
v -416 -512 0
v -416 -480 0
v -384 -480 0

# Texture cooridinates (Count = 22)
vt 0.75 0.1875
vt 0.8125 0.1875
vt 0.8125 0.25
vt 0.75 0.25
vt 0.5625 0.1875
vt 0.625 0.1875
vt 0.625 0.25
vt 0.5625 0.25
vt 0.6875 0.1875
vt 0.6875 0.25
vt 0.6875 0.3125
vt 0.625 0.3125
vt 0.5 0.25
vt 0.5625 0.3125
vt 0.5 0.3125
vt 0.8125 0.3125
vt 0.75 0.3125
vt 0.6875 0.375
vt 0.625 0.375
vt 0.5625 0.375
vt 0.5 0.375
vt 0.5 0.1875

# Normal
vn 0 0 -1

# Mesh description
g floor1_mesh_0004

# Faces
f 1/1/1 2/2/1 3/3/1 4/4/1
f 5/5/1 6/6/1 7/7/1 8/8/1
f 9/5/1 10/6/1 11/7/1 12/8/1
f 13/5/1 14/6/1 15/7/1 16/8/1
f 17/5/1 18/6/1 19/7/1 20/8/1
f 21/5/1 22/6/1 23/7/1 24/8/1
f 25/5/1 26/6/1 27/7/1 28/8/1
f 29/5/1 30/6/1 31/7/1 32/8/1
f 33/5/1 34/6/1 35/7/1 36/8/1
f 37/5/1 38/6/1 39/7/1 40/8/1
f 41/5/1 42/6/1 43/7/1 44/8/1
f 45/5/1 46/6/1 47/7/1 48/8/1
f 49/5/1 50/6/1 51/7/1 52/8/1
f 53/9/1 54/1/1 55/4/1 56/10/1
f 57/7/1 58/10/1 59/11/1 60/12/1
f 61/13/1 62/8/1 63/14/1 64/15/1
f 65/7/1 66/10/1 67/11/1 68/12/1
f 69/13/1 70/8/1 71/14/1 72/15/1
f 73/7/1 74/10/1 75/11/1 76/12/1
f 77/13/1 78/8/1 79/14/1 80/15/1
f 81/4/1 82/3/1 83/16/1 84/17/1
f 85/5/1 86/6/1 87/7/1 88/8/1
f 89/5/1 90/6/1 91/7/1 92/8/1
f 93/12/1 94/11/1 95/18/1 96/19/1
f 97/15/1 98/14/1 99/20/1 100/21/1
f 101/5/1 102/6/1 103/7/1 104/8/1
f 105/5/1 106/6/1 107/7/1 108/8/1
f 109/10/1 110/4/1 111/17/1 112/11/1
f 113/7/1 114/10/1 115/11/1 116/12/1
f 117/13/1 118/8/1 119/14/1 120/15/1
f 121/7/1 122/10/1 123/11/1 124/12/1
f 125/13/1 126/8/1 127/14/1 128/15/1
f 129/7/1 130/10/1 131/11/1 132/12/1
f 133/13/1 134/8/1 135/14/1 136/15/1
f 137/15/1 138/14/1 139/20/1 140/21/1
f 141/5/1 142/6/1 143/7/1 144/8/1
f 145/6/1 146/9/1 147/10/1 148/7/1
f 149/22/1 150/5/1 151/8/1 152/13/1
f 153/5/1 154/6/1 155/7/1 156/8/1
f 157/12/1 158/11/1 159/18/1 160/19/1
f 161/13/1 162/8/1 163/14/1 164/15/1
f 165/7/1 166/10/1 167/11/1 168/12/1
f 169/13/1 170/8/1 171/14/1 172/15/1
f 173/7/1 174/10/1 175/11/1 176/12/1
f 177/13/1 178/8/1 179/14/1 180/15/1
f 181/7/1 182/10/1 183/11/1 184/12/1
f 185/22/1 186/5/1 187/8/1 188/13/1
f 189/12/1 190/11/1 191/18/1 192/19/1
f 193/15/1 194/14/1 195/20/1 196/21/1
f 197/6/1 198/9/1 199/10/1 200/7/1
f 201/7/1 202/10/1 203/11/1 204/12/1
f 205/13/1 206/8/1 207/14/1 208/15/1
f 209/7/1 210/10/1 211/11/1 212/12/1
f 213/13/1 214/8/1 215/14/1 216/15/1
f 217/4/1 218/3/1 219/16/1 220/17/1
f 221/5/1 222/6/1 223/7/1 224/8/1
f 225/5/1 226/6/1 227/7/1 228/8/1
f 229/5/1 230/6/1 231/7/1 232/8/1
f 233/5/1 234/6/1 235/7/1 236/8/1
f 237/5/1 238/6/1 239/7/1 240/8/1
f 241/5/1 242/6/1 243/7/1 244/8/1
f 245/10/1 246/4/1 247/17/1 248/11/1

