# Tiled2Unity generated file. Do not modify by hand.
# Wavefront file for 'floor1_mesh_0009.obj'

# Vertices (Count = 8)
v -224 -512 0
v -256 -512 0
v -256 -480 0
v -224 -480 0
v -256 -512 0
v -288 -512 0
v -288 -480 0
v -256 -480 0

# Texture cooridinates (Count = 8)
vt 0 0.375
vt 0.125 0.375
vt 0.125 0.4375
vt 0 0.4375
vt 0.25 0.375
vt 0.375 0.375
vt 0.375 0.4375
vt 0.25 0.4375

# Normal
vn 0 0 -1

# Mesh description
g floor1_mesh_0009

# Faces
f 1/1/1 2/2/1 3/3/1 4/4/1
f 5/5/1 6/6/1 7/7/1 8/8/1

