# Tiled2Unity generated file. Do not modify by hand.
# Wavefront file for 'floor16_mesh_0014.obj'

# Vertices (Count = 12)
v -288 -256 0
v -320 -256 0
v -320 -224 0
v -288 -224 0
v -288 -288 0
v -320 -288 0
v -320 -256 0
v -288 -256 0
v -288 -320 0
v -320 -320 0
v -320 -288 0
v -288 -288 0

# Texture cooridinates (Count = 4)
vt 0.3125 0.5
vt 0.375 0.5
vt 0.375 0.5625
vt 0.3125 0.5625

# Normal
vn 0 0 -1

# Mesh description
g floor16_mesh_0014

# Faces
f 1/1/1 2/2/1 3/3/1 4/4/1
f 5/1/1 6/2/1 7/3/1 8/4/1
f 9/1/1 10/2/1 11/3/1 12/4/1

