# Tiled2Unity generated file. Do not modify by hand.
# Wavefront file for 'floor16_mesh_0004.obj'

# Vertices (Count = 216)
v -32 -64 0
v -64 -64 0
v -64 -32 0
v -32 -32 0
v -64 -64 0
v -96 -64 0
v -96 -32 0
v -64 -32 0
v -96 -64 0
v -128 -64 0
v -128 -32 0
v -96 -32 0
v -288 -64 0
v -320 -64 0
v -320 -32 0
v -288 -32 0
v -320 -64 0
v -352 -64 0
v -352 -32 0
v -320 -32 0
v -352 -64 0
v -384 -64 0
v -384 -32 0
v -352 -32 0
v -32 -96 0
v -64 -96 0
v -64 -64 0
v -32 -64 0
v -64 -96 0
v -96 -96 0
v -96 -64 0
v -64 -64 0
v -96 -96 0
v -128 -96 0
v -128 -64 0
v -96 -64 0
v -288 -96 0
v -320 -96 0
v -320 -64 0
v -288 -64 0
v -320 -96 0
v -352 -96 0
v -352 -64 0
v -320 -64 0
v -352 -96 0
v -384 -96 0
v -384 -64 0
v -352 -64 0
v -32 -128 0
v -64 -128 0
v -64 -96 0
v -32 -96 0
v -64 -128 0
v -96 -128 0
v -96 -96 0
v -64 -96 0
v -96 -128 0
v -128 -128 0
v -128 -96 0
v -96 -96 0
v -288 -128 0
v -320 -128 0
v -320 -96 0
v -288 -96 0
v -320 -128 0
v -352 -128 0
v -352 -96 0
v -320 -96 0
v -352 -128 0
v -384 -128 0
v -384 -96 0
v -352 -96 0
v -384 -256 0
v -416 -256 0
v -416 -224 0
v -384 -224 0
v -416 -256 0
v -448 -256 0
v -448 -224 0
v -416 -224 0
v -448 -256 0
v -480 -256 0
v -480 -224 0
v -448 -224 0
v -64 -288 0
v -96 -288 0
v -96 -256 0
v -64 -256 0
v -96 -288 0
v -128 -288 0
v -128 -256 0
v -96 -256 0
v -128 -288 0
v -160 -288 0
v -160 -256 0
v -128 -256 0
v -384 -288 0
v -416 -288 0
v -416 -256 0
v -384 -256 0
v -416 -288 0
v -448 -288 0
v -448 -256 0
v -416 -256 0
v -448 -288 0
v -480 -288 0
v -480 -256 0
v -448 -256 0
v -64 -320 0
v -96 -320 0
v -96 -288 0
v -64 -288 0
v -96 -320 0
v -128 -320 0
v -128 -288 0
v -96 -288 0
v -128 -320 0
v -160 -320 0
v -160 -288 0
v -128 -288 0
v -384 -320 0
v -416 -320 0
v -416 -288 0
v -384 -288 0
v -416 -320 0
v -448 -320 0
v -448 -288 0
v -416 -288 0
v -448 -320 0
v -480 -320 0
v -480 -288 0
v -448 -288 0
v -64 -352 0
v -96 -352 0
v -96 -320 0
v -64 -320 0
v -96 -352 0
v -128 -352 0
v -128 -320 0
v -96 -320 0
v -128 -352 0
v -160 -352 0
v -160 -320 0
v -128 -320 0
v -224 -416 0
v -256 -416 0
v -256 -384 0
v -224 -384 0
v -256 -416 0
v -288 -416 0
v -288 -384 0
v -256 -384 0
v -288 -416 0
v -320 -416 0
v -320 -384 0
v -288 -384 0
v -384 -416 0
v -416 -416 0
v -416 -384 0
v -384 -384 0
v -416 -416 0
v -448 -416 0
v -448 -384 0
v -416 -384 0
v -448 -416 0
v -480 -416 0
v -480 -384 0
v -448 -384 0
v -224 -448 0
v -256 -448 0
v -256 -416 0
v -224 -416 0
v -256 -448 0
v -288 -448 0
v -288 -416 0
v -256 -416 0
v -288 -448 0
v -320 -448 0
v -320 -416 0
v -288 -416 0
v -384 -448 0
v -416 -448 0
v -416 -416 0
v -384 -416 0
v -416 -448 0
v -448 -448 0
v -448 -416 0
v -416 -416 0
v -448 -448 0
v -480 -448 0
v -480 -416 0
v -448 -416 0
v -224 -480 0
v -256 -480 0
v -256 -448 0
v -224 -448 0
v -256 -480 0
v -288 -480 0
v -288 -448 0
v -256 -448 0
v -288 -480 0
v -320 -480 0
v -320 -448 0
v -288 -448 0
v -384 -480 0
v -416 -480 0
v -416 -448 0
v -384 -448 0
v -416 -480 0
v -448 -480 0
v -448 -448 0
v -416 -448 0
v -448 -480 0
v -480 -480 0
v -480 -448 0
v -448 -448 0

# Texture cooridinates (Count = 16)
vt 0.1875 0.3125
vt 0.25 0.3125
vt 0.25 0.375
vt 0.1875 0.375
vt 0.3125 0.3125
vt 0.3125 0.375
vt 0.375 0.3125
vt 0.375 0.375
vt 0.1875 0.25
vt 0.25 0.25
vt 0.3125 0.25
vt 0.375 0.25
vt 0.1875 0.1875
vt 0.25 0.1875
vt 0.3125 0.1875
vt 0.375 0.1875

# Normal
vn 0 0 -1

# Mesh description
g floor16_mesh_0004

# Faces
f 1/1/1 2/2/1 3/3/1 4/4/1
f 5/2/1 6/5/1 7/6/1 8/3/1
f 9/5/1 10/7/1 11/8/1 12/6/1
f 13/1/1 14/2/1 15/3/1 16/4/1
f 17/2/1 18/5/1 19/6/1 20/3/1
f 21/5/1 22/7/1 23/8/1 24/6/1
f 25/9/1 26/10/1 27/2/1 28/1/1
f 29/10/1 30/11/1 31/5/1 32/2/1
f 33/11/1 34/12/1 35/7/1 36/5/1
f 37/9/1 38/10/1 39/2/1 40/1/1
f 41/10/1 42/11/1 43/5/1 44/2/1
f 45/11/1 46/12/1 47/7/1 48/5/1
f 49/13/1 50/14/1 51/10/1 52/9/1
f 53/14/1 54/15/1 55/11/1 56/10/1
f 57/15/1 58/16/1 59/12/1 60/11/1
f 61/13/1 62/14/1 63/10/1 64/9/1
f 65/14/1 66/15/1 67/11/1 68/10/1
f 69/15/1 70/16/1 71/12/1 72/11/1
f 73/1/1 74/2/1 75/3/1 76/4/1
f 77/2/1 78/5/1 79/6/1 80/3/1
f 81/5/1 82/7/1 83/8/1 84/6/1
f 85/1/1 86/2/1 87/3/1 88/4/1
f 89/2/1 90/5/1 91/6/1 92/3/1
f 93/5/1 94/7/1 95/8/1 96/6/1
f 97/9/1 98/10/1 99/2/1 100/1/1
f 101/10/1 102/11/1 103/5/1 104/2/1
f 105/11/1 106/12/1 107/7/1 108/5/1
f 109/9/1 110/10/1 111/2/1 112/1/1
f 113/10/1 114/11/1 115/5/1 116/2/1
f 117/11/1 118/12/1 119/7/1 120/5/1
f 121/13/1 122/14/1 123/10/1 124/9/1
f 125/14/1 126/15/1 127/11/1 128/10/1
f 129/15/1 130/16/1 131/12/1 132/11/1
f 133/13/1 134/14/1 135/10/1 136/9/1
f 137/14/1 138/15/1 139/11/1 140/10/1
f 141/15/1 142/16/1 143/12/1 144/11/1
f 145/1/1 146/2/1 147/3/1 148/4/1
f 149/2/1 150/5/1 151/6/1 152/3/1
f 153/5/1 154/7/1 155/8/1 156/6/1
f 157/1/1 158/2/1 159/3/1 160/4/1
f 161/2/1 162/5/1 163/6/1 164/3/1
f 165/5/1 166/7/1 167/8/1 168/6/1
f 169/9/1 170/10/1 171/2/1 172/1/1
f 173/10/1 174/11/1 175/5/1 176/2/1
f 177/11/1 178/12/1 179/7/1 180/5/1
f 181/9/1 182/10/1 183/2/1 184/1/1
f 185/10/1 186/11/1 187/5/1 188/2/1
f 189/11/1 190/12/1 191/7/1 192/5/1
f 193/13/1 194/14/1 195/10/1 196/9/1
f 197/14/1 198/15/1 199/11/1 200/10/1
f 201/15/1 202/16/1 203/12/1 204/11/1
f 205/13/1 206/14/1 207/10/1 208/9/1
f 209/14/1 210/15/1 211/11/1 212/10/1
f 213/15/1 214/16/1 215/12/1 216/11/1

