# Tiled2Unity generated file. Do not modify by hand.
# Wavefront file for 'floor9_mesh_0003.obj'

# Vertices (Count = 444)
v -32 -64 0
v -64 -64 0
v -64 -32 0
v -32 -32 0
v -64 -64 0
v -96 -64 0
v -96 -32 0
v -64 -32 0
v -96 -64 0
v -128 -64 0
v -128 -32 0
v -96 -32 0
v -128 -64 0
v -160 -64 0
v -160 -32 0
v -128 -32 0
v -160 -64 0
v -192 -64 0
v -192 -32 0
v -160 -32 0
v -192 -64 0
v -224 -64 0
v -224 -32 0
v -192 -32 0
v -224 -64 0
v -256 -64 0
v -256 -32 0
v -224 -32 0
v -256 -64 0
v -288 -64 0
v -288 -32 0
v -256 -32 0
v -288 -64 0
v -320 -64 0
v -320 -32 0
v -288 -32 0
v -320 -64 0
v -352 -64 0
v -352 -32 0
v -320 -32 0
v -352 -64 0
v -384 -64 0
v -384 -32 0
v -352 -32 0
v -384 -64 0
v -416 -64 0
v -416 -32 0
v -384 -32 0
v -416 -64 0
v -448 -64 0
v -448 -32 0
v -416 -32 0
v -448 -64 0
v -480 -64 0
v -480 -32 0
v -448 -32 0
v -32 -96 0
v -64 -96 0
v -64 -64 0
v -32 -64 0
v -448 -96 0
v -480 -96 0
v -480 -64 0
v -448 -64 0
v -32 -128 0
v -64 -128 0
v -64 -96 0
v -32 -96 0
v -96 -128 0
v -128 -128 0
v -128 -96 0
v -96 -96 0
v -128 -128 0
v -160 -128 0
v -160 -96 0
v -128 -96 0
v -160 -128 0
v -192 -128 0
v -192 -96 0
v -160 -96 0
v -192 -128 0
v -224 -128 0
v -224 -96 0
v -192 -96 0
v -224 -128 0
v -256 -128 0
v -256 -96 0
v -224 -96 0
v -256 -128 0
v -288 -128 0
v -288 -96 0
v -256 -96 0
v -288 -128 0
v -320 -128 0
v -320 -96 0
v -288 -96 0
v -320 -128 0
v -352 -128 0
v -352 -96 0
v -320 -96 0
v -352 -128 0
v -384 -128 0
v -384 -96 0
v -352 -96 0
v -384 -128 0
v -416 -128 0
v -416 -96 0
v -384 -96 0
v -448 -128 0
v -480 -128 0
v -480 -96 0
v -448 -96 0
v -32 -160 0
v -64 -160 0
v -64 -128 0
v -32 -128 0
v -96 -160 0
v -128 -160 0
v -128 -128 0
v -96 -128 0
v -384 -160 0
v -416 -160 0
v -416 -128 0
v -384 -128 0
v -448 -160 0
v -480 -160 0
v -480 -128 0
v -448 -128 0
v -32 -192 0
v -64 -192 0
v -64 -160 0
v -32 -160 0
v -96 -192 0
v -128 -192 0
v -128 -160 0
v -96 -160 0
v -160 -192 0
v -192 -192 0
v -192 -160 0
v -160 -160 0
v -192 -192 0
v -224 -192 0
v -224 -160 0
v -192 -160 0
v -224 -192 0
v -256 -192 0
v -256 -160 0
v -224 -160 0
v -256 -192 0
v -288 -192 0
v -288 -160 0
v -256 -160 0
v -288 -192 0
v -320 -192 0
v -320 -160 0
v -288 -160 0
v -320 -192 0
v -352 -192 0
v -352 -160 0
v -320 -160 0
v -384 -192 0
v -416 -192 0
v -416 -160 0
v -384 -160 0
v -448 -192 0
v -480 -192 0
v -480 -160 0
v -448 -160 0
v -32 -224 0
v -64 -224 0
v -64 -192 0
v -32 -192 0
v -96 -224 0
v -128 -224 0
v -128 -192 0
v -96 -192 0
v -160 -224 0
v -192 -224 0
v -192 -192 0
v -160 -192 0
v -320 -224 0
v -352 -224 0
v -352 -192 0
v -320 -192 0
v -384 -224 0
v -416 -224 0
v -416 -192 0
v -384 -192 0
v -448 -224 0
v -480 -224 0
v -480 -192 0
v -448 -192 0
v -32 -256 0
v -64 -256 0
v -64 -224 0
v -32 -224 0
v -96 -256 0
v -128 -256 0
v -128 -224 0
v -96 -224 0
v -160 -256 0
v -192 -256 0
v -192 -224 0
v -160 -224 0
v -320 -256 0
v -352 -256 0
v -352 -224 0
v -320 -224 0
v -384 -256 0
v -416 -256 0
v -416 -224 0
v -384 -224 0
v -448 -256 0
v -480 -256 0
v -480 -224 0
v -448 -224 0
v -32 -288 0
v -64 -288 0
v -64 -256 0
v -32 -256 0
v -96 -288 0
v -128 -288 0
v -128 -256 0
v -96 -256 0
v -160 -288 0
v -192 -288 0
v -192 -256 0
v -160 -256 0
v -320 -288 0
v -352 -288 0
v -352 -256 0
v -320 -256 0
v -384 -288 0
v -416 -288 0
v -416 -256 0
v -384 -256 0
v -448 -288 0
v -480 -288 0
v -480 -256 0
v -448 -256 0
v -32 -320 0
v -64 -320 0
v -64 -288 0
v -32 -288 0
v -96 -320 0
v -128 -320 0
v -128 -288 0
v -96 -288 0
v -320 -320 0
v -352 -320 0
v -352 -288 0
v -320 -288 0
v -384 -320 0
v -416 -320 0
v -416 -288 0
v -384 -288 0
v -448 -320 0
v -480 -320 0
v -480 -288 0
v -448 -288 0
v -32 -352 0
v -64 -352 0
v -64 -320 0
v -32 -320 0
v -96 -352 0
v -128 -352 0
v -128 -320 0
v -96 -320 0
v -128 -352 0
v -160 -352 0
v -160 -320 0
v -128 -320 0
v -160 -352 0
v -192 -352 0
v -192 -320 0
v -160 -320 0
v -192 -352 0
v -224 -352 0
v -224 -320 0
v -192 -320 0
v -224 -352 0
v -256 -352 0
v -256 -320 0
v -224 -320 0
v -256 -352 0
v -288 -352 0
v -288 -320 0
v -256 -320 0
v -288 -352 0
v -320 -352 0
v -320 -320 0
v -288 -320 0
v -320 -352 0
v -352 -352 0
v -352 -320 0
v -320 -320 0
v -384 -352 0
v -416 -352 0
v -416 -320 0
v -384 -320 0
v -448 -352 0
v -480 -352 0
v -480 -320 0
v -448 -320 0
v -32 -384 0
v -64 -384 0
v -64 -352 0
v -32 -352 0
v -384 -384 0
v -416 -384 0
v -416 -352 0
v -384 -352 0
v -448 -384 0
v -480 -384 0
v -480 -352 0
v -448 -352 0
v 0 -416 0
v -32 -416 0
v -32 -384 0
v 0 -384 0
v -32 -416 0
v -64 -416 0
v -64 -384 0
v -32 -384 0
v -64 -416 0
v -96 -416 0
v -96 -384 0
v -64 -384 0
v -96 -416 0
v -128 -416 0
v -128 -384 0
v -96 -384 0
v -128 -416 0
v -160 -416 0
v -160 -384 0
v -128 -384 0
v -160 -416 0
v -192 -416 0
v -192 -384 0
v -160 -384 0
v -192 -416 0
v -224 -416 0
v -224 -384 0
v -192 -384 0
v -224 -416 0
v -256 -416 0
v -256 -384 0
v -224 -384 0
v -256 -416 0
v -288 -416 0
v -288 -384 0
v -256 -384 0
v -288 -416 0
v -320 -416 0
v -320 -384 0
v -288 -384 0
v -320 -416 0
v -352 -416 0
v -352 -384 0
v -320 -384 0
v -352 -416 0
v -384 -416 0
v -384 -384 0
v -352 -384 0
v -384 -416 0
v -416 -416 0
v -416 -384 0
v -384 -384 0
v -448 -416 0
v -480 -416 0
v -480 -384 0
v -448 -384 0
v 0 -448 0
v -32 -448 0
v -32 -416 0
v 0 -416 0
v -32 -448 0
v -64 -448 0
v -64 -416 0
v -32 -416 0
v -448 -448 0
v -480 -448 0
v -480 -416 0
v -448 -416 0
v 0 -480 0
v -32 -480 0
v -32 -448 0
v 0 -448 0
v -32 -480 0
v -64 -480 0
v -64 -448 0
v -32 -448 0
v -64 -480 0
v -96 -480 0
v -96 -448 0
v -64 -448 0
v -96 -480 0
v -128 -480 0
v -128 -448 0
v -96 -448 0
v -128 -480 0
v -160 -480 0
v -160 -448 0
v -128 -448 0
v -160 -480 0
v -192 -480 0
v -192 -448 0
v -160 -448 0
v -192 -480 0
v -224 -480 0
v -224 -448 0
v -192 -448 0
v -224 -480 0
v -256 -480 0
v -256 -448 0
v -224 -448 0
v -256 -480 0
v -288 -480 0
v -288 -448 0
v -256 -448 0
v -288 -480 0
v -320 -480 0
v -320 -448 0
v -288 -448 0
v -320 -480 0
v -352 -480 0
v -352 -448 0
v -320 -448 0
v -352 -480 0
v -384 -480 0
v -384 -448 0
v -352 -448 0
v -384 -480 0
v -416 -480 0
v -416 -448 0
v -384 -448 0
v -416 -480 0
v -448 -480 0
v -448 -448 0
v -416 -448 0
v -448 -480 0
v -480 -480 0
v -480 -448 0
v -448 -448 0

# Texture cooridinates (Count = 26)
vt 0.75 0.1875
vt 0.8125 0.1875
vt 0.8125 0.25
vt 0.75 0.25
vt 0.5625 0.1875
vt 0.625 0.1875
vt 0.625 0.25
vt 0.5625 0.25
vt 0.6875 0.1875
vt 0.6875 0.25
vt 0.6875 0.3125
vt 0.625 0.3125
vt 0.5 0.25
vt 0.5625 0.3125
vt 0.5 0.3125
vt 0.5625 0.375
vt 0.5 0.375
vt 0.6875 0.375
vt 0.625 0.375
vt 0.8125 0.375
vt 0.875 0.375
vt 0.875 0.4375
vt 0.8125 0.4375
vt 0.5 0.1875
vt 0.75 0.3125
vt 0.8125 0.3125

# Normal
vn 0 0 -1

# Mesh description
g floor9_mesh_0003

# Faces
f 1/1/1 2/2/1 3/3/1 4/4/1
f 5/5/1 6/6/1 7/7/1 8/8/1
f 9/5/1 10/6/1 11/7/1 12/8/1
f 13/5/1 14/6/1 15/7/1 16/8/1
f 17/5/1 18/6/1 19/7/1 20/8/1
f 21/5/1 22/6/1 23/7/1 24/8/1
f 25/5/1 26/6/1 27/7/1 28/8/1
f 29/5/1 30/6/1 31/7/1 32/8/1
f 33/5/1 34/6/1 35/7/1 36/8/1
f 37/5/1 38/6/1 39/7/1 40/8/1
f 41/5/1 42/6/1 43/7/1 44/8/1
f 45/5/1 46/6/1 47/7/1 48/8/1
f 49/5/1 50/6/1 51/7/1 52/8/1
f 53/9/1 54/1/1 55/4/1 56/10/1
f 57/7/1 58/10/1 59/11/1 60/12/1
f 61/13/1 62/8/1 63/14/1 64/15/1
f 65/7/1 66/10/1 67/11/1 68/12/1
f 69/15/1 70/14/1 71/16/1 72/17/1
f 73/5/1 74/6/1 75/7/1 76/8/1
f 77/5/1 78/6/1 79/7/1 80/8/1
f 81/5/1 82/6/1 83/7/1 84/8/1
f 85/5/1 86/6/1 87/7/1 88/8/1
f 89/5/1 90/6/1 91/7/1 92/8/1
f 93/5/1 94/6/1 95/7/1 96/8/1
f 97/5/1 98/6/1 99/7/1 100/8/1
f 101/5/1 102/6/1 103/7/1 104/8/1
f 105/9/1 106/1/1 107/4/1 108/10/1
f 109/13/1 110/8/1 111/14/1 112/15/1
f 113/7/1 114/10/1 115/11/1 116/12/1
f 117/13/1 118/8/1 119/14/1 120/15/1
f 121/13/1 122/8/1 123/14/1 124/15/1
f 125/13/1 126/8/1 127/14/1 128/15/1
f 129/7/1 130/10/1 131/11/1 132/12/1
f 133/13/1 134/8/1 135/14/1 136/15/1
f 137/1/1 138/2/1 139/3/1 140/4/1
f 141/5/1 142/6/1 143/7/1 144/8/1
f 145/5/1 146/6/1 147/7/1 148/8/1
f 149/5/1 150/6/1 151/7/1 152/8/1
f 153/5/1 154/6/1 155/7/1 156/8/1
f 157/12/1 158/11/1 159/18/1 160/19/1
f 161/13/1 162/8/1 163/14/1 164/15/1
f 165/13/1 166/8/1 167/14/1 168/15/1
f 169/7/1 170/10/1 171/11/1 172/12/1
f 173/13/1 174/8/1 175/14/1 176/15/1
f 177/7/1 178/10/1 179/11/1 180/12/1
f 181/7/1 182/10/1 183/11/1 184/12/1
f 185/13/1 186/8/1 187/14/1 188/15/1
f 189/13/1 190/8/1 191/14/1 192/15/1
f 193/7/1 194/10/1 195/11/1 196/12/1
f 197/13/1 198/8/1 199/14/1 200/15/1
f 201/7/1 202/10/1 203/11/1 204/12/1
f 205/7/1 206/10/1 207/11/1 208/12/1
f 209/13/1 210/8/1 211/14/1 212/15/1
f 213/13/1 214/8/1 215/14/1 216/15/1
f 217/7/1 218/10/1 219/11/1 220/12/1
f 221/13/1 222/8/1 223/14/1 224/15/1
f 225/20/1 226/21/1 227/22/1 228/23/1
f 229/7/1 230/10/1 231/11/1 232/12/1
f 233/13/1 234/8/1 235/14/1 236/15/1
f 237/13/1 238/8/1 239/14/1 240/15/1
f 241/7/1 242/10/1 243/11/1 244/12/1
f 245/13/1 246/8/1 247/14/1 248/15/1
f 249/7/1 250/10/1 251/11/1 252/12/1
f 253/13/1 254/8/1 255/14/1 256/15/1
f 257/13/1 258/8/1 259/14/1 260/15/1
f 261/7/1 262/10/1 263/11/1 264/12/1
f 265/24/1 266/5/1 267/8/1 268/13/1
f 269/5/1 270/6/1 271/7/1 272/8/1
f 273/5/1 274/6/1 275/7/1 276/8/1
f 277/5/1 278/6/1 279/7/1 280/8/1
f 281/5/1 282/6/1 283/7/1 284/8/1
f 285/5/1 286/6/1 287/7/1 288/8/1
f 289/5/1 290/6/1 291/7/1 292/8/1
f 293/6/1 294/9/1 295/10/1 296/7/1
f 297/13/1 298/8/1 299/14/1 300/15/1
f 301/13/1 302/8/1 303/14/1 304/15/1
f 305/7/1 306/10/1 307/11/1 308/12/1
f 309/13/1 310/8/1 311/14/1 312/15/1
f 313/13/1 314/8/1 315/14/1 316/15/1
f 317/1/1 318/2/1 319/3/1 320/4/1
f 321/5/1 322/6/1 323/7/1 324/8/1
f 325/5/1 326/6/1 327/7/1 328/8/1
f 329/5/1 330/6/1 331/7/1 332/8/1
f 333/5/1 334/6/1 335/7/1 336/8/1
f 337/5/1 338/6/1 339/7/1 340/8/1
f 341/5/1 342/6/1 343/7/1 344/8/1
f 345/5/1 346/6/1 347/7/1 348/8/1
f 349/5/1 350/6/1 351/7/1 352/8/1
f 353/5/1 354/6/1 355/7/1 356/8/1
f 357/5/1 358/6/1 359/7/1 360/8/1
f 361/5/1 362/6/1 363/7/1 364/8/1
f 365/10/1 366/4/1 367/25/1 368/11/1
f 369/13/1 370/8/1 371/14/1 372/15/1
f 373/7/1 374/10/1 375/11/1 376/12/1
f 377/7/1 378/10/1 379/11/1 380/12/1
f 381/13/1 382/8/1 383/14/1 384/15/1
f 385/4/1 386/3/1 387/26/1 388/25/1
f 389/5/1 390/6/1 391/7/1 392/8/1
f 393/5/1 394/6/1 395/7/1 396/8/1
f 397/5/1 398/6/1 399/7/1 400/8/1
f 401/5/1 402/6/1 403/7/1 404/8/1
f 405/5/1 406/6/1 407/7/1 408/8/1
f 409/5/1 410/6/1 411/7/1 412/8/1
f 413/5/1 414/6/1 415/7/1 416/8/1
f 417/5/1 418/6/1 419/7/1 420/8/1
f 421/5/1 422/6/1 423/7/1 424/8/1
f 425/5/1 426/6/1 427/7/1 428/8/1
f 429/5/1 430/6/1 431/7/1 432/8/1
f 433/5/1 434/6/1 435/7/1 436/8/1
f 437/5/1 438/6/1 439/7/1 440/8/1
f 441/10/1 442/4/1 443/25/1 444/11/1

