# Tiled2Unity generated file. Do not modify by hand.
# Wavefront file for 'floor8_mesh_0008.obj'

# Vertices (Count = 16)
v -64 -160 0
v -96 -160 0
v -96 -128 0
v -64 -128 0
v -64 -192 0
v -96 -192 0
v -96 -160 0
v -64 -160 0
v -288 -352 0
v -320 -352 0
v -320 -320 0
v -288 -320 0
v -320 -352 0
v -352 -352 0
v -352 -320 0
v -320 -320 0

# Texture cooridinates (Count = 6)
vt 0.5 0.375
vt 0.5625 0.375
vt 0.5625 0.4375
vt 0.5 0.4375
vt 0.625 0.375
vt 0.625 0.4375

# Normal
vn 0 0 -1

# Mesh description
g floor8_mesh_0008

# Faces
f 1/1/1 2/2/1 3/3/1 4/4/1
f 5/1/1 6/2/1 7/3/1 8/4/1
f 9/2/1 10/5/1 11/6/1 12/3/1
f 13/2/1 14/5/1 15/6/1 16/3/1

