# Tiled2Unity generated file. Do not modify by hand.
# Wavefront file for 'floor8_mesh_0003.obj'

# Vertices (Count = 444)
v -32 -64 0
v -64 -64 0
v -64 -32 0
v -32 -32 0
v -64 -64 0
v -96 -64 0
v -96 -32 0
v -64 -32 0
v -96 -64 0
v -128 -64 0
v -128 -32 0
v -96 -32 0
v -128 -64 0
v -160 -64 0
v -160 -32 0
v -128 -32 0
v -160 -64 0
v -192 -64 0
v -192 -32 0
v -160 -32 0
v -192 -64 0
v -224 -64 0
v -224 -32 0
v -192 -32 0
v -224 -64 0
v -256 -64 0
v -256 -32 0
v -224 -32 0
v -256 -64 0
v -288 -64 0
v -288 -32 0
v -256 -32 0
v -288 -64 0
v -320 -64 0
v -320 -32 0
v -288 -32 0
v -320 -64 0
v -352 -64 0
v -352 -32 0
v -320 -32 0
v -352 -64 0
v -384 -64 0
v -384 -32 0
v -352 -32 0
v -384 -64 0
v -416 -64 0
v -416 -32 0
v -384 -32 0
v -416 -64 0
v -448 -64 0
v -448 -32 0
v -416 -32 0
v -448 -64 0
v -480 -64 0
v -480 -32 0
v -448 -32 0
v -32 -96 0
v -64 -96 0
v -64 -64 0
v -32 -64 0
v -448 -96 0
v -480 -96 0
v -480 -64 0
v -448 -64 0
v -32 -128 0
v -64 -128 0
v -64 -96 0
v -32 -96 0
v -64 -128 0
v -96 -128 0
v -96 -96 0
v -64 -96 0
v -96 -128 0
v -128 -128 0
v -128 -96 0
v -96 -96 0
v -128 -128 0
v -160 -128 0
v -160 -96 0
v -128 -96 0
v -160 -128 0
v -192 -128 0
v -192 -96 0
v -160 -96 0
v -192 -128 0
v -224 -128 0
v -224 -96 0
v -192 -96 0
v -256 -128 0
v -288 -128 0
v -288 -96 0
v -256 -96 0
v -288 -128 0
v -320 -128 0
v -320 -96 0
v -288 -96 0
v -320 -128 0
v -352 -128 0
v -352 -96 0
v -320 -96 0
v -352 -128 0
v -384 -128 0
v -384 -96 0
v -352 -96 0
v -384 -128 0
v -416 -128 0
v -416 -96 0
v -384 -96 0
v -416 -128 0
v -448 -128 0
v -448 -96 0
v -416 -96 0
v -448 -128 0
v -480 -128 0
v -480 -96 0
v -448 -96 0
v -32 -160 0
v -64 -160 0
v -64 -128 0
v -32 -128 0
v -448 -160 0
v -480 -160 0
v -480 -128 0
v -448 -128 0
v -32 -192 0
v -64 -192 0
v -64 -160 0
v -32 -160 0
v -448 -192 0
v -480 -192 0
v -480 -160 0
v -448 -160 0
v -32 -224 0
v -64 -224 0
v -64 -192 0
v -32 -192 0
v -64 -224 0
v -96 -224 0
v -96 -192 0
v -64 -192 0
v -96 -224 0
v -128 -224 0
v -128 -192 0
v -96 -192 0
v -160 -224 0
v -192 -224 0
v -192 -192 0
v -160 -192 0
v -192 -224 0
v -224 -224 0
v -224 -192 0
v -192 -192 0
v -224 -224 0
v -256 -224 0
v -256 -192 0
v -224 -192 0
v -256 -224 0
v -288 -224 0
v -288 -192 0
v -256 -192 0
v -288 -224 0
v -320 -224 0
v -320 -192 0
v -288 -192 0
v -352 -224 0
v -384 -224 0
v -384 -192 0
v -352 -192 0
v -384 -224 0
v -416 -224 0
v -416 -192 0
v -384 -192 0
v -448 -224 0
v -480 -224 0
v -480 -192 0
v -448 -192 0
v -96 -256 0
v -128 -256 0
v -128 -224 0
v -96 -224 0
v -160 -256 0
v -192 -256 0
v -192 -224 0
v -160 -224 0
v -192 -256 0
v -224 -256 0
v -224 -224 0
v -192 -224 0
v -256 -256 0
v -288 -256 0
v -288 -224 0
v -256 -224 0
v -288 -256 0
v -320 -256 0
v -320 -224 0
v -288 -224 0
v -352 -256 0
v -384 -256 0
v -384 -224 0
v -352 -224 0
v -384 -256 0
v -416 -256 0
v -416 -224 0
v -384 -224 0
v -448 -256 0
v -480 -256 0
v -480 -224 0
v -448 -224 0
v -480 -256 0
v -512 -256 0
v -512 -224 0
v -480 -224 0
v -96 -288 0
v -128 -288 0
v -128 -256 0
v -96 -256 0
v -192 -288 0
v -224 -288 0
v -224 -256 0
v -192 -256 0
v -256 -288 0
v -288 -288 0
v -288 -256 0
v -256 -256 0
v -352 -288 0
v -384 -288 0
v -384 -256 0
v -352 -256 0
v -384 -288 0
v -416 -288 0
v -416 -256 0
v -384 -256 0
v -480 -288 0
v -512 -288 0
v -512 -256 0
v -480 -256 0
v -96 -320 0
v -128 -320 0
v -128 -288 0
v -96 -288 0
v -192 -320 0
v -224 -320 0
v -224 -288 0
v -192 -288 0
v -256 -320 0
v -288 -320 0
v -288 -288 0
v -256 -288 0
v -352 -320 0
v -384 -320 0
v -384 -288 0
v -352 -288 0
v -384 -320 0
v -416 -320 0
v -416 -288 0
v -384 -288 0
v -480 -320 0
v -512 -320 0
v -512 -288 0
v -480 -288 0
v -96 -352 0
v -128 -352 0
v -128 -320 0
v -96 -320 0
v -192 -352 0
v -224 -352 0
v -224 -320 0
v -192 -320 0
v -256 -352 0
v -288 -352 0
v -288 -320 0
v -256 -320 0
v -352 -352 0
v -384 -352 0
v -384 -320 0
v -352 -320 0
v -384 -352 0
v -416 -352 0
v -416 -320 0
v -384 -320 0
v -480 -352 0
v -512 -352 0
v -512 -320 0
v -480 -320 0
v -32 -384 0
v -64 -384 0
v -64 -352 0
v -32 -352 0
v -64 -384 0
v -96 -384 0
v -96 -352 0
v -64 -352 0
v -96 -384 0
v -128 -384 0
v -128 -352 0
v -96 -352 0
v -160 -384 0
v -192 -384 0
v -192 -352 0
v -160 -352 0
v -192 -384 0
v -224 -384 0
v -224 -352 0
v -192 -352 0
v -256 -384 0
v -288 -384 0
v -288 -352 0
v -256 -352 0
v -288 -384 0
v -320 -384 0
v -320 -352 0
v -288 -352 0
v -320 -384 0
v -352 -384 0
v -352 -352 0
v -320 -352 0
v -352 -384 0
v -384 -384 0
v -384 -352 0
v -352 -352 0
v -384 -384 0
v -416 -384 0
v -416 -352 0
v -384 -352 0
v -416 -384 0
v -448 -384 0
v -448 -352 0
v -416 -352 0
v -480 -384 0
v -512 -384 0
v -512 -352 0
v -480 -352 0
v -32 -416 0
v -64 -416 0
v -64 -384 0
v -32 -384 0
v -192 -416 0
v -224 -416 0
v -224 -384 0
v -192 -384 0
v -224 -416 0
v -256 -416 0
v -256 -384 0
v -224 -384 0
v -256 -416 0
v -288 -416 0
v -288 -384 0
v -256 -384 0
v -288 -416 0
v -320 -416 0
v -320 -384 0
v -288 -384 0
v -320 -416 0
v -352 -416 0
v -352 -384 0
v -320 -384 0
v -352 -416 0
v -384 -416 0
v -384 -384 0
v -352 -384 0
v -384 -416 0
v -416 -416 0
v -416 -384 0
v -384 -384 0
v -480 -416 0
v -512 -416 0
v -512 -384 0
v -480 -384 0
v -32 -448 0
v -64 -448 0
v -64 -416 0
v -32 -416 0
v -192 -448 0
v -224 -448 0
v -224 -416 0
v -192 -416 0
v -224 -448 0
v -256 -448 0
v -256 -416 0
v -224 -416 0
v -480 -448 0
v -512 -448 0
v -512 -416 0
v -480 -416 0
v -32 -480 0
v -64 -480 0
v -64 -448 0
v -32 -448 0
v -64 -480 0
v -96 -480 0
v -96 -448 0
v -64 -448 0
v -96 -480 0
v -128 -480 0
v -128 -448 0
v -96 -448 0
v -128 -480 0
v -160 -480 0
v -160 -448 0
v -128 -448 0
v -160 -480 0
v -192 -480 0
v -192 -448 0
v -160 -448 0
v -192 -480 0
v -224 -480 0
v -224 -448 0
v -192 -448 0
v -224 -480 0
v -256 -480 0
v -256 -448 0
v -224 -448 0
v -256 -480 0
v -288 -480 0
v -288 -448 0
v -256 -448 0
v -288 -480 0
v -320 -480 0
v -320 -448 0
v -288 -448 0
v -320 -480 0
v -352 -480 0
v -352 -448 0
v -320 -448 0
v -352 -480 0
v -384 -480 0
v -384 -448 0
v -352 -448 0
v -384 -480 0
v -416 -480 0
v -416 -448 0
v -384 -448 0
v -416 -480 0
v -448 -480 0
v -448 -448 0
v -416 -448 0
v -448 -480 0
v -480 -480 0
v -480 -448 0
v -448 -448 0
v -480 -480 0
v -512 -480 0
v -512 -448 0
v -480 -448 0

# Texture cooridinates (Count = 25)
vt 0.75 0.1875
vt 0.8125 0.1875
vt 0.8125 0.25
vt 0.75 0.25
vt 0.5625 0.1875
vt 0.625 0.1875
vt 0.625 0.25
vt 0.5625 0.25
vt 0.6875 0.1875
vt 0.6875 0.25
vt 0.6875 0.3125
vt 0.625 0.3125
vt 0.5 0.25
vt 0.5625 0.3125
vt 0.5 0.3125
vt 0.6875 0.375
vt 0.75 0.375
vt 0.75 0.4375
vt 0.6875 0.4375
vt 0.75 0.3125
vt 0.8125 0.3125
vt 0.625 0.375
vt 0.5625 0.375
vt 0.5 0.375
vt 0.5 0.1875

# Normal
vn 0 0 -1

# Mesh description
g floor8_mesh_0003

# Faces
f 1/1/1 2/2/1 3/3/1 4/4/1
f 5/5/1 6/6/1 7/7/1 8/8/1
f 9/5/1 10/6/1 11/7/1 12/8/1
f 13/5/1 14/6/1 15/7/1 16/8/1
f 17/5/1 18/6/1 19/7/1 20/8/1
f 21/5/1 22/6/1 23/7/1 24/8/1
f 25/5/1 26/6/1 27/7/1 28/8/1
f 29/5/1 30/6/1 31/7/1 32/8/1
f 33/5/1 34/6/1 35/7/1 36/8/1
f 37/5/1 38/6/1 39/7/1 40/8/1
f 41/5/1 42/6/1 43/7/1 44/8/1
f 45/5/1 46/6/1 47/7/1 48/8/1
f 49/5/1 50/6/1 51/7/1 52/8/1
f 53/9/1 54/1/1 55/4/1 56/10/1
f 57/7/1 58/10/1 59/11/1 60/12/1
f 61/13/1 62/8/1 63/14/1 64/15/1
f 65/7/1 66/10/1 67/11/1 68/12/1
f 69/5/1 70/6/1 71/7/1 72/8/1
f 73/5/1 74/6/1 75/7/1 76/8/1
f 77/5/1 78/6/1 79/7/1 80/8/1
f 81/5/1 82/6/1 83/7/1 84/8/1
f 85/16/1 86/17/1 87/18/1 88/19/1
f 89/11/1 90/20/1 91/17/1 92/16/1
f 93/5/1 94/6/1 95/7/1 96/8/1
f 97/5/1 98/6/1 99/7/1 100/8/1
f 101/5/1 102/6/1 103/7/1 104/8/1
f 105/5/1 106/6/1 107/7/1 108/8/1
f 109/5/1 110/6/1 111/7/1 112/8/1
f 113/13/1 114/8/1 115/14/1 116/15/1
f 117/7/1 118/10/1 119/11/1 120/12/1
f 121/13/1 122/8/1 123/14/1 124/15/1
f 125/7/1 126/10/1 127/11/1 128/12/1
f 129/13/1 130/8/1 131/14/1 132/15/1
f 133/4/1 134/3/1 135/21/1 136/20/1
f 137/5/1 138/6/1 139/7/1 140/8/1
f 141/12/1 142/11/1 143/16/1 144/22/1
f 145/15/1 146/14/1 147/23/1 148/24/1
f 149/5/1 150/6/1 151/7/1 152/8/1
f 153/5/1 154/6/1 155/7/1 156/8/1
f 157/5/1 158/6/1 159/7/1 160/8/1
f 161/12/1 162/11/1 163/16/1 164/22/1
f 165/15/1 166/14/1 167/23/1 168/24/1
f 169/12/1 170/11/1 171/16/1 172/22/1
f 173/13/1 174/8/1 175/14/1 176/15/1
f 177/7/1 178/10/1 179/11/1 180/12/1
f 181/25/1 182/5/1 183/8/1 184/13/1
f 185/9/1 186/1/1 187/4/1 188/10/1
f 189/15/1 190/14/1 191/23/1 192/24/1
f 193/6/1 194/9/1 195/10/1 196/7/1
f 197/25/1 198/5/1 199/8/1 200/13/1
f 201/7/1 202/10/1 203/11/1 204/12/1
f 205/25/1 206/5/1 207/8/1 208/13/1
f 209/9/1 210/1/1 211/4/1 212/10/1
f 213/7/1 214/10/1 215/11/1 216/12/1
f 217/13/1 218/8/1 219/14/1 220/15/1
f 221/13/1 222/8/1 223/14/1 224/15/1
f 225/7/1 226/10/1 227/11/1 228/12/1
f 229/7/1 230/10/1 231/11/1 232/12/1
f 233/13/1 234/8/1 235/14/1 236/15/1
f 237/7/1 238/10/1 239/11/1 240/12/1
f 241/13/1 242/8/1 243/14/1 244/15/1
f 245/13/1 246/8/1 247/14/1 248/15/1
f 249/7/1 250/10/1 251/11/1 252/12/1
f 253/7/1 254/10/1 255/11/1 256/12/1
f 257/13/1 258/8/1 259/14/1 260/15/1
f 261/7/1 262/10/1 263/11/1 264/12/1
f 265/13/1 266/8/1 267/14/1 268/15/1
f 269/13/1 270/8/1 271/14/1 272/15/1
f 273/7/1 274/10/1 275/11/1 276/12/1
f 277/7/1 278/10/1 279/11/1 280/12/1
f 281/13/1 282/8/1 283/14/1 284/15/1
f 285/1/1 286/2/1 287/3/1 288/4/1
f 289/5/1 290/6/1 291/7/1 292/8/1
f 293/6/1 294/9/1 295/10/1 296/7/1
f 297/11/1 298/20/1 299/17/1 300/16/1
f 301/13/1 302/8/1 303/14/1 304/15/1
f 305/25/1 306/5/1 307/8/1 308/13/1
f 309/5/1 310/6/1 311/7/1 312/8/1
f 313/5/1 314/6/1 315/7/1 316/8/1
f 317/6/1 318/9/1 319/10/1 320/7/1
f 321/7/1 322/10/1 323/11/1 324/12/1
f 325/16/1 326/17/1 327/18/1 328/19/1
f 329/13/1 330/8/1 331/14/1 332/15/1
f 333/7/1 334/10/1 335/11/1 336/12/1
f 337/13/1 338/8/1 339/14/1 340/15/1
f 341/1/1 342/2/1 343/3/1 344/4/1
f 345/5/1 346/6/1 347/7/1 348/8/1
f 349/5/1 350/6/1 351/7/1 352/8/1
f 353/5/1 354/6/1 355/7/1 356/8/1
f 357/5/1 358/6/1 359/7/1 360/8/1
f 361/6/1 362/9/1 363/10/1 364/7/1
f 365/13/1 366/8/1 367/14/1 368/15/1
f 369/7/1 370/10/1 371/11/1 372/12/1
f 373/13/1 374/8/1 375/14/1 376/15/1
f 377/7/1 378/10/1 379/11/1 380/12/1
f 381/13/1 382/8/1 383/14/1 384/15/1
f 385/4/1 386/3/1 387/21/1 388/20/1
f 389/5/1 390/6/1 391/7/1 392/8/1
f 393/5/1 394/6/1 395/7/1 396/8/1
f 397/5/1 398/6/1 399/7/1 400/8/1
f 401/5/1 402/6/1 403/7/1 404/8/1
f 405/10/1 406/4/1 407/20/1 408/11/1
f 409/4/1 410/3/1 411/21/1 412/20/1
f 413/5/1 414/6/1 415/7/1 416/8/1
f 417/5/1 418/6/1 419/7/1 420/8/1
f 421/5/1 422/6/1 423/7/1 424/8/1
f 425/5/1 426/6/1 427/7/1 428/8/1
f 429/5/1 430/6/1 431/7/1 432/8/1
f 433/5/1 434/6/1 435/7/1 436/8/1
f 437/5/1 438/6/1 439/7/1 440/8/1
f 441/10/1 442/4/1 443/20/1 444/11/1

