# Tiled2Unity generated file. Do not modify by hand.
# Wavefront file for 'floor10_mesh_0009.obj'

# Vertices (Count = 16)
v -128 -96 0
v -160 -96 0
v -160 -64 0
v -128 -64 0
v -192 -96 0
v -224 -96 0
v -224 -64 0
v -192 -64 0
v -256 -96 0
v -288 -96 0
v -288 -64 0
v -256 -64 0
v -320 -96 0
v -352 -96 0
v -352 -64 0
v -320 -64 0

# Texture cooridinates (Count = 4)
vt 0.5625 0.0625
vt 0.625 0.0625
vt 0.625 0.125
vt 0.5625 0.125

# Normal
vn 0 0 -1

# Mesh description
g floor10_mesh_0009

# Faces
f 1/1/1 2/2/1 3/3/1 4/4/1
f 5/1/1 6/2/1 7/3/1 8/4/1
f 9/1/1 10/2/1 11/3/1 12/4/1
f 13/1/1 14/2/1 15/3/1 16/4/1

