# Tiled2Unity generated file. Do not modify by hand.
# Wavefront file for 'floor10_mesh_0003.obj'

# Vertices (Count = 408)
v -32 -64 0
v -64 -64 0
v -64 -32 0
v -32 -32 0
v -64 -64 0
v -96 -64 0
v -96 -32 0
v -64 -32 0
v -96 -64 0
v -128 -64 0
v -128 -32 0
v -96 -32 0
v -128 -64 0
v -160 -64 0
v -160 -32 0
v -128 -32 0
v -160 -64 0
v -192 -64 0
v -192 -32 0
v -160 -32 0
v -192 -64 0
v -224 -64 0
v -224 -32 0
v -192 -32 0
v -224 -64 0
v -256 -64 0
v -256 -32 0
v -224 -32 0
v -256 -64 0
v -288 -64 0
v -288 -32 0
v -256 -32 0
v -288 -64 0
v -320 -64 0
v -320 -32 0
v -288 -32 0
v -320 -64 0
v -352 -64 0
v -352 -32 0
v -320 -32 0
v -352 -64 0
v -384 -64 0
v -384 -32 0
v -352 -32 0
v -384 -64 0
v -416 -64 0
v -416 -32 0
v -384 -32 0
v -416 -64 0
v -448 -64 0
v -448 -32 0
v -416 -32 0
v -448 -64 0
v -480 -64 0
v -480 -32 0
v -448 -32 0
v -32 -96 0
v -64 -96 0
v -64 -64 0
v -32 -64 0
v -448 -96 0
v -480 -96 0
v -480 -64 0
v -448 -64 0
v -32 -128 0
v -64 -128 0
v -64 -96 0
v -32 -96 0
v -448 -128 0
v -480 -128 0
v -480 -96 0
v -448 -96 0
v -32 -160 0
v -64 -160 0
v -64 -128 0
v -32 -128 0
v -128 -160 0
v -160 -160 0
v -160 -128 0
v -128 -128 0
v -160 -160 0
v -192 -160 0
v -192 -128 0
v -160 -128 0
v -192 -160 0
v -224 -160 0
v -224 -128 0
v -192 -128 0
v -224 -160 0
v -256 -160 0
v -256 -128 0
v -224 -128 0
v -256 -160 0
v -288 -160 0
v -288 -128 0
v -256 -128 0
v -288 -160 0
v -320 -160 0
v -320 -128 0
v -288 -128 0
v -320 -160 0
v -352 -160 0
v -352 -128 0
v -320 -128 0
v -352 -160 0
v -384 -160 0
v -384 -128 0
v -352 -128 0
v -384 -160 0
v -416 -160 0
v -416 -128 0
v -384 -128 0
v -416 -160 0
v -448 -160 0
v -448 -128 0
v -416 -128 0
v -448 -160 0
v -480 -160 0
v -480 -128 0
v -448 -128 0
v -32 -192 0
v -64 -192 0
v -64 -160 0
v -32 -160 0
v -96 -192 0
v -128 -192 0
v -128 -160 0
v -96 -160 0
v -128 -192 0
v -160 -192 0
v -160 -160 0
v -128 -160 0
v -384 -192 0
v -416 -192 0
v -416 -160 0
v -384 -160 0
v -448 -192 0
v -480 -192 0
v -480 -160 0
v -448 -160 0
v -32 -224 0
v -64 -224 0
v -64 -192 0
v -32 -192 0
v -128 -224 0
v -160 -224 0
v -160 -192 0
v -128 -192 0
v -192 -224 0
v -224 -224 0
v -224 -192 0
v -192 -192 0
v -224 -224 0
v -256 -224 0
v -256 -192 0
v -224 -192 0
v -256 -224 0
v -288 -224 0
v -288 -192 0
v -256 -192 0
v -288 -224 0
v -320 -224 0
v -320 -192 0
v -288 -192 0
v -384 -224 0
v -416 -224 0
v -416 -192 0
v -384 -192 0
v -448 -224 0
v -480 -224 0
v -480 -192 0
v -448 -192 0
v -32 -256 0
v -64 -256 0
v -64 -224 0
v -32 -224 0
v -128 -256 0
v -160 -256 0
v -160 -224 0
v -128 -224 0
v -288 -256 0
v -320 -256 0
v -320 -224 0
v -288 -224 0
v -384 -256 0
v -416 -256 0
v -416 -224 0
v -384 -224 0
v -448 -256 0
v -480 -256 0
v -480 -224 0
v -448 -224 0
v -32 -288 0
v -64 -288 0
v -64 -256 0
v -32 -256 0
v -128 -288 0
v -160 -288 0
v -160 -256 0
v -128 -256 0
v -288 -288 0
v -320 -288 0
v -320 -256 0
v -288 -256 0
v -384 -288 0
v -416 -288 0
v -416 -256 0
v -384 -256 0
v -448 -288 0
v -480 -288 0
v -480 -256 0
v -448 -256 0
v -32 -320 0
v -64 -320 0
v -64 -288 0
v -32 -288 0
v -128 -320 0
v -160 -320 0
v -160 -288 0
v -128 -288 0
v -288 -320 0
v -320 -320 0
v -320 -288 0
v -288 -288 0
v -384 -320 0
v -416 -320 0
v -416 -288 0
v -384 -288 0
v -448 -320 0
v -480 -320 0
v -480 -288 0
v -448 -288 0
v -32 -352 0
v -64 -352 0
v -64 -320 0
v -32 -320 0
v -128 -352 0
v -160 -352 0
v -160 -320 0
v -128 -320 0
v -160 -352 0
v -192 -352 0
v -192 -320 0
v -160 -320 0
v -192 -352 0
v -224 -352 0
v -224 -320 0
v -192 -320 0
v -224 -352 0
v -256 -352 0
v -256 -320 0
v -224 -320 0
v -256 -352 0
v -288 -352 0
v -288 -320 0
v -256 -320 0
v -288 -352 0
v -320 -352 0
v -320 -320 0
v -288 -320 0
v -384 -352 0
v -416 -352 0
v -416 -320 0
v -384 -320 0
v -448 -352 0
v -480 -352 0
v -480 -320 0
v -448 -320 0
v -32 -384 0
v -64 -384 0
v -64 -352 0
v -32 -352 0
v -384 -384 0
v -416 -384 0
v -416 -352 0
v -384 -352 0
v -448 -384 0
v -480 -384 0
v -480 -352 0
v -448 -352 0
v 0 -416 0
v -32 -416 0
v -32 -384 0
v 0 -384 0
v -32 -416 0
v -64 -416 0
v -64 -384 0
v -32 -384 0
v -64 -416 0
v -96 -416 0
v -96 -384 0
v -64 -384 0
v -128 -416 0
v -160 -416 0
v -160 -384 0
v -128 -384 0
v -160 -416 0
v -192 -416 0
v -192 -384 0
v -160 -384 0
v -192 -416 0
v -224 -416 0
v -224 -384 0
v -192 -384 0
v -224 -416 0
v -256 -416 0
v -256 -384 0
v -224 -384 0
v -256 -416 0
v -288 -416 0
v -288 -384 0
v -256 -384 0
v -288 -416 0
v -320 -416 0
v -320 -384 0
v -288 -384 0
v -320 -416 0
v -352 -416 0
v -352 -384 0
v -320 -384 0
v -352 -416 0
v -384 -416 0
v -384 -384 0
v -352 -384 0
v -384 -416 0
v -416 -416 0
v -416 -384 0
v -384 -384 0
v -448 -416 0
v -480 -416 0
v -480 -384 0
v -448 -384 0
v 0 -448 0
v -32 -448 0
v -32 -416 0
v 0 -416 0
v -448 -448 0
v -480 -448 0
v -480 -416 0
v -448 -416 0
v 0 -480 0
v -32 -480 0
v -32 -448 0
v 0 -448 0
v -448 -480 0
v -480 -480 0
v -480 -448 0
v -448 -448 0
v 0 -512 0
v -32 -512 0
v -32 -480 0
v 0 -480 0
v -32 -512 0
v -64 -512 0
v -64 -480 0
v -32 -480 0
v -64 -512 0
v -96 -512 0
v -96 -480 0
v -64 -480 0
v -96 -512 0
v -128 -512 0
v -128 -480 0
v -96 -480 0
v -128 -512 0
v -160 -512 0
v -160 -480 0
v -128 -480 0
v -160 -512 0
v -192 -512 0
v -192 -480 0
v -160 -480 0
v -192 -512 0
v -224 -512 0
v -224 -480 0
v -192 -480 0
v -224 -512 0
v -256 -512 0
v -256 -480 0
v -224 -480 0
v -256 -512 0
v -288 -512 0
v -288 -480 0
v -256 -480 0
v -288 -512 0
v -320 -512 0
v -320 -480 0
v -288 -480 0
v -320 -512 0
v -352 -512 0
v -352 -480 0
v -320 -480 0
v -352 -512 0
v -384 -512 0
v -384 -480 0
v -352 -480 0
v -384 -512 0
v -416 -512 0
v -416 -480 0
v -384 -480 0
v -416 -512 0
v -448 -512 0
v -448 -480 0
v -416 -480 0
v -448 -512 0
v -480 -512 0
v -480 -480 0
v -448 -480 0

# Texture cooridinates (Count = 24)
vt 0.75 0.1875
vt 0.8125 0.1875
vt 0.8125 0.25
vt 0.75 0.25
vt 0.5625 0.1875
vt 0.625 0.1875
vt 0.625 0.25
vt 0.5625 0.25
vt 0.6875 0.1875
vt 0.6875 0.25
vt 0.6875 0.3125
vt 0.625 0.3125
vt 0.5 0.25
vt 0.5625 0.3125
vt 0.5 0.3125
vt 0.5625 0.375
vt 0.5 0.375
vt 0.75 0.3125
vt 0.75 0.375
vt 0.6875 0.375
vt 0.5 0.1875
vt 0.75 0.4375
vt 0.6875 0.4375
vt 0.8125 0.3125

# Normal
vn 0 0 -1

# Mesh description
g floor10_mesh_0003

# Faces
f 1/1/1 2/2/1 3/3/1 4/4/1
f 5/5/1 6/6/1 7/7/1 8/8/1
f 9/5/1 10/6/1 11/7/1 12/8/1
f 13/5/1 14/6/1 15/7/1 16/8/1
f 17/5/1 18/6/1 19/7/1 20/8/1
f 21/5/1 22/6/1 23/7/1 24/8/1
f 25/5/1 26/6/1 27/7/1 28/8/1
f 29/5/1 30/6/1 31/7/1 32/8/1
f 33/5/1 34/6/1 35/7/1 36/8/1
f 37/5/1 38/6/1 39/7/1 40/8/1
f 41/5/1 42/6/1 43/7/1 44/8/1
f 45/5/1 46/6/1 47/7/1 48/8/1
f 49/5/1 50/6/1 51/7/1 52/8/1
f 53/9/1 54/1/1 55/4/1 56/10/1
f 57/7/1 58/10/1 59/11/1 60/12/1
f 61/13/1 62/8/1 63/14/1 64/15/1
f 65/7/1 66/10/1 67/11/1 68/12/1
f 69/13/1 70/8/1 71/14/1 72/15/1
f 73/7/1 74/10/1 75/11/1 76/12/1
f 77/15/1 78/14/1 79/16/1 80/17/1
f 81/5/1 82/6/1 83/7/1 84/8/1
f 85/5/1 86/6/1 87/7/1 88/8/1
f 89/5/1 90/6/1 91/7/1 92/8/1
f 93/5/1 94/6/1 95/7/1 96/8/1
f 97/5/1 98/6/1 99/7/1 100/8/1
f 101/5/1 102/6/1 103/7/1 104/8/1
f 105/5/1 106/6/1 107/7/1 108/8/1
f 109/5/1 110/6/1 111/7/1 112/8/1
f 113/5/1 114/6/1 115/7/1 116/8/1
f 117/13/1 118/8/1 119/14/1 120/15/1
f 121/7/1 122/10/1 123/11/1 124/12/1
f 125/11/1 126/18/1 127/19/1 128/20/1
f 129/13/1 130/8/1 131/14/1 132/15/1
f 133/7/1 134/10/1 135/11/1 136/12/1
f 137/13/1 138/8/1 139/14/1 140/15/1
f 141/7/1 142/10/1 143/11/1 144/12/1
f 145/13/1 146/8/1 147/14/1 148/15/1
f 149/11/1 150/18/1 151/19/1 152/20/1
f 153/5/1 154/6/1 155/7/1 156/8/1
f 157/5/1 158/6/1 159/7/1 160/8/1
f 161/9/1 162/1/1 163/4/1 164/10/1
f 165/7/1 166/10/1 167/11/1 168/12/1
f 169/13/1 170/8/1 171/14/1 172/15/1
f 173/7/1 174/10/1 175/11/1 176/12/1
f 177/13/1 178/8/1 179/14/1 180/15/1
f 181/13/1 182/8/1 183/14/1 184/15/1
f 185/7/1 186/10/1 187/11/1 188/12/1
f 189/13/1 190/8/1 191/14/1 192/15/1
f 193/7/1 194/10/1 195/11/1 196/12/1
f 197/13/1 198/8/1 199/14/1 200/15/1
f 201/13/1 202/8/1 203/14/1 204/15/1
f 205/7/1 206/10/1 207/11/1 208/12/1
f 209/13/1 210/8/1 211/14/1 212/15/1
f 213/7/1 214/10/1 215/11/1 216/12/1
f 217/13/1 218/8/1 219/14/1 220/15/1
f 221/13/1 222/8/1 223/14/1 224/15/1
f 225/7/1 226/10/1 227/11/1 228/12/1
f 229/13/1 230/8/1 231/14/1 232/15/1
f 233/7/1 234/10/1 235/11/1 236/12/1
f 237/21/1 238/5/1 239/8/1 240/13/1
f 241/5/1 242/6/1 243/7/1 244/8/1
f 245/5/1 246/6/1 247/7/1 248/8/1
f 249/5/1 250/6/1 251/7/1 252/8/1
f 253/5/1 254/6/1 255/7/1 256/8/1
f 257/10/1 258/4/1 259/18/1 260/11/1
f 261/7/1 262/10/1 263/11/1 264/12/1
f 265/13/1 266/8/1 267/14/1 268/15/1
f 269/7/1 270/10/1 271/11/1 272/12/1
f 273/7/1 274/10/1 275/11/1 276/12/1
f 277/13/1 278/8/1 279/14/1 280/15/1
f 281/1/1 282/2/1 283/3/1 284/4/1
f 285/5/1 286/6/1 287/7/1 288/8/1
f 289/20/1 290/19/1 291/22/1 292/23/1
f 293/5/1 294/6/1 295/7/1 296/8/1
f 297/5/1 298/6/1 299/7/1 300/8/1
f 301/5/1 302/6/1 303/7/1 304/8/1
f 305/5/1 306/6/1 307/7/1 308/8/1
f 309/5/1 310/6/1 311/7/1 312/8/1
f 313/5/1 314/6/1 315/7/1 316/8/1
f 317/5/1 318/6/1 319/7/1 320/8/1
f 321/5/1 322/6/1 323/7/1 324/8/1
f 325/6/1 326/9/1 327/10/1 328/7/1
f 329/13/1 330/8/1 331/14/1 332/15/1
f 333/7/1 334/10/1 335/11/1 336/12/1
f 337/13/1 338/8/1 339/14/1 340/15/1
f 341/7/1 342/10/1 343/11/1 344/12/1
f 345/13/1 346/8/1 347/14/1 348/15/1
f 349/4/1 350/3/1 351/24/1 352/18/1
f 353/5/1 354/6/1 355/7/1 356/8/1
f 357/5/1 358/6/1 359/7/1 360/8/1
f 361/5/1 362/6/1 363/7/1 364/8/1
f 365/5/1 366/6/1 367/7/1 368/8/1
f 369/5/1 370/6/1 371/7/1 372/8/1
f 373/5/1 374/6/1 375/7/1 376/8/1
f 377/5/1 378/6/1 379/7/1 380/8/1
f 381/5/1 382/6/1 383/7/1 384/8/1
f 385/5/1 386/6/1 387/7/1 388/8/1
f 389/5/1 390/6/1 391/7/1 392/8/1
f 393/5/1 394/6/1 395/7/1 396/8/1
f 397/5/1 398/6/1 399/7/1 400/8/1
f 401/5/1 402/6/1 403/7/1 404/8/1
f 405/10/1 406/4/1 407/18/1 408/11/1

